<svg width="16" height="16" viewBox="0 0 16 16" fill="none" xmlns="http://www.w3.org/2000/svg">
<path d="M2 12.6667C2.91212 12.1401 3.94678 11.8628 5 11.8628C6.05322 11.8628 7.08788 12.1401 8 12.6667C8.91212 12.1401 9.94678 11.8628 11 11.8628C12.0532 11.8628 13.0879 12.1401 14 12.6667" stroke="white" stroke-linecap="round" stroke-linejoin="round"/>
<path d="M2 4C2.91212 3.47339 3.94678 3.19615 5 3.19615C6.05322 3.19615 7.08788 3.47339 8 4C8.91212 3.47339 9.94678 3.19615 11 3.19615C12.0532 3.19615 13.0879 3.47339 14 4" stroke="white" stroke-linecap="round" stroke-linejoin="round"/>
<path d="M2 4V12.6667" stroke="white" stroke-linecap="round" stroke-linejoin="round"/>
<path d="M8 4V12.6667" stroke="white" stroke-linecap="round" stroke-linejoin="round"/>
<path d="M14 4V12.6667" stroke="white" stroke-linecap="round" stroke-linejoin="round"/>
</svg>
