<svg width="24" height="24" viewBox="0 0 24 24" fill="none" xmlns="http://www.w3.org/2000/svg">
<path d="M11.9997 3C11.2165 2.99941 10.4366 3.10093 9.67967 3.302C7.91781 3.77286 6.34047 4.76763 5.15639 6.15464C3.97232 7.54166 3.23733 9.25553 3.04871 11.0694C2.86009 12.8834 3.22672 14.7118 4.10009 16.3127C4.97346 17.9137 6.31239 19.2117 7.93967 20.035C9.15284 20.6472 10.4889 20.9767 11.8476 20.9988C13.2063 21.0209 14.5524 20.7351 15.7848 20.1628C17.0173 19.5904 18.1042 18.7464 18.9639 17.6941C19.8236 16.6418 20.4339 15.4084 20.7489 14.0866C21.064 12.7647 21.0756 11.3887 20.7829 10.0617C20.4903 8.73469 19.9009 7.4912 19.0591 6.42449C18.2173 5.35778 17.1448 4.49554 15.9222 3.90245C14.6996 3.30937 13.3585 3.00084 11.9997 3V3Z" stroke="white" stroke-linecap="round" stroke-linejoin="round"/>
<path d="M12 21L12 3" stroke="white" stroke-linecap="round" stroke-linejoin="round"/>
<path d="M12 12L3 12" stroke="white" stroke-linecap="round" stroke-linejoin="round"/>
<path d="M12 15L4 15" stroke="white" stroke-linecap="round" stroke-linejoin="round"/>
<path d="M12 18L6 18" stroke="white" stroke-linecap="round" stroke-linejoin="round"/>
<path d="M12 6L6 6" stroke="white" stroke-linecap="round" stroke-linejoin="round"/>
<path d="M12 9L4 9" stroke="white" stroke-linecap="round" stroke-linejoin="round"/>
</svg>
