<svg width="31" height="10" viewBox="0 0 31 10" fill="none" xmlns="http://www.w3.org/2000/svg">
<path d="M28.484 2.448H24.584V2.652H24.32V2.34L24.236 2.256H23.852V1.716L23.792 1.656H22.148L21.764 2.016H19.976L19.172 1.608H17.288L17.192 1.716V1.992H14.024L13.232 1.692H10.844V1.356L10.208 0.983999H9.98V0.551999H9.728V0.983999H9.632L9.344 1.176V1.692H8.972V1.524L8.936 1.488L8.708 1.536L8.456 1.704L8.252 1.896L7.328 2.124L7.22 2.004H1.652V1.752L1.532 1.62H1.208L1.136 1.548H0.668L0.584 1.68L0.572 1.944L0.62 2.64L0.668 3.744L0.62 5.148L0.536 6.036L0.692 6.084L1.508 5.868L1.604 5.748L1.676 5.244L3.476 4.2H7.364L8.048 4.512V4.824L8.096 4.944L7.928 5.076L7.568 5.484L7.136 6.144L6.944 6.6L6.836 7.116L6.824 7.44L6.464 7.644L6.608 7.788L11.192 8.988L11.372 8.832L11.852 8.988L12.008 8.7V8.448L12.332 8.124V8.88L12.548 9.096H15.896L16.076 8.94V5.748H16.196L16.688 5.904H22.256L22.664 5.748H23.6L23.924 5.436V5.292H24.512V5.424H26.108V4.668H24.512V4.836H23.936V4.392H24.176L24.32 4.236V3.756H24.584V3.96H28.484V3.756H30.596V2.664H28.484V2.448ZM10.568 7.98L10.388 8.064L10.16 8.1L9.896 8.028L8.456 7.632L8.42 7.548L8.564 7.2L8.756 6.912L8.924 6.708L8.996 6.444L9.068 6.192L9.224 6.012L9.416 5.952H9.668L9.728 5.796L9.56 5.628L9.44 5.424L9.416 5.148L9.512 4.932L9.644 4.824H9.692L9.728 5.136L9.824 5.424L9.956 5.628L10.04 5.688L10.1 5.604L10.004 5.448L9.944 5.088L9.992 4.824H11.432L11.636 4.872L11.732 5.004L11.768 5.196L10.724 7.812L10.568 7.98Z" fill="white"/>
</svg>
