<svg width="35" height="14" viewBox="0 0 35 14" fill="none" xmlns="http://www.w3.org/2000/svg">
<path d="M34.928 13.596C34.916 13.464 34.892 13.32 34.856 13.14C34.796 12.84 34.688 12.42 34.496 11.856C34.112 10.776 33.836 10.488 33.764 10.488C33.728 10.476 33.584 10.668 33.476 10.776C33.176 11.1 33.056 11.028 32.876 10.884C32.792 10.8 31.448 9.444 30.044 8.424C26.312 5.616 23.54 4.548 19.064 3.936H19.016V4.26V9.924V10.08L19.088 9.984L19.136 9.924C19.22 9.84 19.328 9.732 19.328 9.6C19.328 9.18 19.304 8.04 19.496 7.188C19.58 6.852 19.772 6.624 20 6.636C22.94 6.804 25.604 7.416 27.992 8.484C28.772 8.856 29.936 9.48 31.124 10.26C31.508 10.536 31.868 10.824 32.24 11.124H20.324V11.052C20.324 10.98 20.3 10.944 20.252 10.944H19.892C19.856 10.944 19.832 10.98 19.832 11.052V11.124H14.132V11.052C14.132 10.98 14.108 10.944 14.06 10.944H13.7C13.664 10.944 13.64 10.98 13.64 11.052V11.124H2.948C5.54 9.108 9.032 7.716 9.08 7.716C9.104 7.716 12.176 6.276 16.556 6.18L16.616 6.192H16.7V7.104H16.796V7.08C16.844 6.912 16.892 6.828 16.928 6.828C16.964 6.828 17 6.888 17.012 6.924L17.024 6.96V7.104L17.276 7.044V4.98C17.276 4.848 17.3 4.512 17.36 4.368C17.396 4.284 17.636 4.26 17.684 4.248H17.828V4.2C17.828 4.164 17.228 0.899999 17.204 0.899999C17.192 0.899999 17.18 0.912 17.168 0.935999L17.072 1.164L17.048 3.78H17.024C15.872 4.02 11.864 4.824 8.84 6.36C5.612 7.992 3.824 9.756 3.02 10.368L2.684 10.644C2.54 10.764 2.276 10.956 2.036 10.548C2 10.512 1.784 10.248 1.748 10.248C1.664 10.272 1.448 10.368 1.028 11.496C0.752 12.228 0.632 12.972 0.548 13.44C0.548 13.452 0.536 13.476 0.536 13.488C0.536 13.536 0.548 13.572 0.584 13.584C0.608 13.608 0.632 13.596 0.656 13.56C1.016 12.936 1.568 12.3 2.324 11.64H13.64V12.12C13.64 12.168 13.652 12.204 13.688 12.216C13.724 12.216 13.94 12.192 13.952 12.144L14.072 11.64H19.892L20 12.144C20.012 12.192 20.228 12.216 20.264 12.216C20.3 12.204 20.324 12.168 20.324 12.12V11.64H32.816C34.076 12.792 34.58 13.344 34.832 13.632L34.928 13.596ZM17.492 7.032H17.612V7.008C17.648 6.888 17.684 6.78 17.72 6.696C17.804 6.552 17.9 6.42 18.08 6.48C18.308 6.564 18.5 6.936 18.644 7.26C18.68 7.356 18.704 7.464 18.74 7.572L18.776 7.728V5.724H18.764C18.584 5.688 18.26 5.664 17.984 5.34C17.876 5.184 17.864 4.98 17.816 4.704V4.68H17.804C17.768 4.668 17.564 4.692 17.552 4.74C17.504 4.836 17.492 5.064 17.492 5.196V7.032Z" fill="white"/>
</svg>
