<svg width="145" height="145" viewBox="0 0 145 145" fill="none" xmlns="http://www.w3.org/2000/svg">
<path d="M72.5 0L145 72.5L72.5 145L3.95671e-06 72.5L72.5 0Z" fill="#2F2F39"/>
<path fill-rule="evenodd" clip-rule="evenodd" d="M130.858 72.5L72.5 14.1421L14.1421 72.5L72.5 130.858L130.858 72.5ZM72.5 0L3.95671e-06 72.5L72.5 145L145 72.5L72.5 0Z" fill="#C94340"/>
<path fill-rule="evenodd" clip-rule="evenodd" d="M98.4033 72.5455L73 47.1421L47.5967 72.5455L73 97.9488L98.4033 72.5455ZM73 33L33.4545 72.5455L73 112.091L112.545 72.5455L73 33Z" fill="#C94340"/>
<path fill-rule="evenodd" clip-rule="evenodd" d="M91.498 91.4951L91.498 55.5693L55.5723 55.5693L55.5723 91.4951L91.498 91.4951ZM101.498 45.5693L45.5723 45.5693L45.5723 101.495L101.498 101.495L101.498 45.5693Z" fill="#C94340"/>
<path d="M93 73.5C93 84.8218 83.8218 94 72.5 94C61.1782 94 52 84.8218 52 73.5C52 62.1782 61.1782 53 72.5 53C83.8218 53 93 62.1782 93 73.5Z" fill="#2F2F39"/>
</svg>
