<svg width="10" height="10" viewBox="0 0 10 10" fill="none" xmlns="http://www.w3.org/2000/svg">
<g clip-path="url(#clip0_286_42)">
<path d="M3.95215 2.01738V3.97149C3.95215 4.58858 4.42195 5.087 5.0036 5.087C5.57034 5.087 6.04014 4.58858 6.05506 3.97149V2.01738C6.05506 1.40029 5.58526 0.886047 5.0036 0.886047C4.42195 0.893959 3.95215 1.40029 3.95215 2.01738Z" fill="white"/>
<path d="M8.38159 0.0158228C7.73282 0.0158228 7.28539 0.498418 6.71865 0.806962C6.68882 0.822785 6.63662 0.838608 6.59188 0.85443V3.97152C6.57697 4.89715 5.86854 5.64873 5.01097 5.64873C4.13849 5.64873 3.43006 4.88133 3.43006 3.93987V0.838608L3.29583 0.791139C2.72909 0.498418 2.29658 0 1.6329 0C0.514327 0 -0.291042 1.23418 0.0967285 2.36551C0.260785 2.86392 0.596356 3.13291 0.984126 3.40981C1.45392 3.73418 1.88644 4.14557 2.24438 4.61234C2.75892 5.30854 3.11686 6.14715 3.28092 7.0174C3.36295 7.4288 3.40769 7.99051 3.44498 8.37025C3.527 9.26424 4.09375 10 5.01097 10C5.9282 10 6.49494 9.26424 6.57697 8.37025C6.6068 7.97468 6.659 7.4288 6.74102 7.0174C6.90508 6.14715 7.25557 5.30854 7.77756 4.60443C8.13551 4.12184 8.5531 3.73418 9.03782 3.4019C9.42559 3.125 9.76116 2.85601 9.92521 2.35759C10.2832 1.25 9.47779 0.0158228 8.38159 0.0158228Z" fill="white"/>
</g>
<defs>
<clipPath id="clip0_286_42">
<rect width="10" height="10" fill="white"/>
</clipPath>
</defs>
</svg>
