<svg width="13" height="13" viewBox="0 0 13 13" fill="none" xmlns="http://www.w3.org/2000/svg">
<rect width="13" height="13" fill="white" fill-opacity="0.01"/>
<path d="M2.4375 11.375C2.22083 11.375 2.03125 11.2937 1.86875 11.1312C1.70625 10.9687 1.625 10.7792 1.625 10.5625V2.4375C1.625 2.22083 1.70625 2.03125 1.86875 1.86875C2.03125 1.70625 2.22083 1.625 2.4375 1.625H8.69375L11.375 4.30625V10.5625C11.375 10.7792 11.2937 10.9687 11.1312 11.1312C10.9687 11.2937 10.7792 11.375 10.5625 11.375H2.4375ZM2.4375 10.5625H10.5625V4.75312H8.24688V2.4375H2.4375V10.5625ZM3.77813 9.05938H9.22188V8.24688H3.77813V9.05938ZM3.77813 4.75312H6.5V3.94063H3.77813V4.75312ZM3.77813 6.90625H9.22188V6.09375H3.77813V6.90625ZM2.4375 2.4375V4.75312V2.4375V10.5625V2.4375Z" fill="white"/>
</svg>
