<svg width="25" height="12" viewBox="0 0 25 12" fill="none" xmlns="http://www.w3.org/2000/svg">
<path d="M23.576 1.564H15.668V1.384H14.288V1.216L14.036 0.904L13.976 0.483999H13.568L13.484 0.916L13.304 1.12L12.092 1.18L11.924 1.456H11.432V1.612H10.736L10.64 1.792L10.448 2.08L10.1 2.344L9.368 2.524H1.604L1.472 2.656H1.208L1.052 2.512H0.836L0.68 2.548L0.584 2.62L0.548 2.872L0.608 3.616L0.644 4.696L0.608 5.776L0.548 6.784V6.976L0.608 7.252L0.704 7.312L1.508 7.024L1.676 6.652V5.764L1.724 5.656L2.528 4.804H7.28L7.34 4.888L7.328 4.96L7.232 5.08L6.86 5.584L6.476 6.196L6.164 6.868L6.008 7.396L5.936 7.888L5.768 7.984L5.528 8.056V8.236L5.612 8.356L5.804 8.476L10.868 9.94V11.2L11.024 11.368H14.072L14.252 11.176V7.852L17.912 5.104H18.356L18.572 5.344H23.66L23.876 5.116H24.164V4.216L24.332 4.048V1.876H24.104L23.576 1.564ZM10.772 8.896V9.004L7.748 8.128L7.844 7.768L8 7.492L8.192 7.288L8.336 7.216V6.892L8.42 6.592L8.528 6.424L8.66 6.34L8.852 6.316L8.984 6.328L9.128 6.172V6.064L8.9 5.92L8.792 5.752L8.768 5.476L8.828 5.26L8.912 5.152H9.128L9.14 5.428L9.188 5.668L9.308 5.92L9.392 6.028L9.464 6.1L9.572 5.992L9.464 5.752L9.416 5.488L9.428 5.272L9.476 5.152H10.868V8.788L10.772 8.896ZM11.384 4.012V2.728H11.624V4.012H11.384Z" fill="white"/>
</svg>
