<svg width="43" height="6" viewBox="0 0 43 6" fill="none" xmlns="http://www.w3.org/2000/svg">
<path d="M10.82 3.244C10.82 3.256 10.82 3.256 10.82 3.256C10.832 3.256 10.844 3.256 10.856 3.256V3.244C10.844 3.244 10.832 3.244 10.82 3.244ZM8.804 3.376C8.804 3.388 8.804 3.4 8.804 3.4C8.828 3.4 8.852 3.4 8.876 3.4C8.876 3.388 8.876 3.388 8.876 3.376C8.852 3.376 8.828 3.376 8.804 3.376ZM28.4 1.768C28.376 1.528 28.436 1.42 28.4 1.18H28.064C28.04 1.24 28.016 1.3 27.98 1.36C27.932 1.468 27.68 1.72 27.596 1.72C27.416 1.72 27.224 1.72 27.032 1.72C27.02 1.684 27.008 1.636 26.996 1.6C26.78 1.552 26.54 1.6 26.384 1.504C26.444 1.36 26.42 1.36 26.42 1.216H26.108C26.024 1.264 25.952 1.324 25.856 1.432C25.796 1.492 25.604 1.516 25.46 1.516C24.644 1.504 23.828 1.504 23.012 1.504C22.352 1.504 21.692 1.504 21.02 1.504C21.008 1.54 20.996 1.564 20.972 1.588C20.948 1.588 20.912 1.6 20.9 1.6C20.864 1.684 20.828 1.996 20.804 2.068C20.672 2.068 20.552 2.068 20.444 2.068C20.312 2.068 20.192 2.068 20.072 2.068C19.952 2.068 19.832 2.068 19.724 2.068C19.604 2.068 19.496 2.068 19.376 2.068C19.256 2.068 19.136 2.056 19.028 2.068C18.908 2.08 18.788 2.056 18.668 2.068C18.536 2.08 18.416 2.068 18.296 2.068C18.164 2.068 18.044 2.068 17.912 2.068C17.816 2.068 17.72 2.08 17.624 2.068C17.492 2.056 17.372 2.068 17.252 2.068C17.132 2.068 17.024 2.08 16.904 2.068C16.784 2.056 16.652 2.068 16.52 2.068C16.424 2.068 16.34 2.068 16.256 2.068C16.112 2.068 15.968 2.056 15.836 2.068C15.728 2.08 15.608 2.056 15.5 2.068C15.356 2.08 15.224 2.068 15.08 2.068C14.972 2.068 14.876 2.068 14.768 2.068C14.66 2.068 14.54 2.08 14.432 2.068C14.312 2.056 14.192 2.068 14.072 2.068C14.024 2.02 13.976 1.924 13.904 1.984L13.868 2.068H13.712C13.7 2.116 13.688 2.152 13.676 2.212C13.616 2.224 13.556 2.236 13.496 2.236C12.788 2.248 12.092 2.248 11.384 2.248C11.348 2.248 11.312 2.248 11.264 2.248V1.852C11.048 1.852 10.856 1.78 10.688 1.588C10.628 1.648 10.568 1.696 10.508 1.744L10.484 1.84C10.268 2.008 10.052 1.972 9.824 1.972C7.604 1.972 5.372 1.972 3.152 1.972C3.08 1.972 2.996 1.972 2.936 1.972C2.804 1.864 2.684 1.804 2.552 1.876L2.348 1.804L2.216 1.888L2.12 1.828L2.036 1.876L1.952 1.792L1.82 1.816L1.772 1.756L1.688 1.792C1.52 1.744 1.46 1.588 1.472 1.408L1.556 1.396L1.544 1.204L1.448 1.18C1.436 1.096 1.46 0.976 1.448 0.844C1.268 0.844 1.076 0.819999 0.896 0.844C0.896 1.084 0.716 1.408 0.704 1.456C0.584 1.804 0.512 2.068 0.464 2.452C0.428 2.776 0.44 2.884 0.476 3.208C0.536 3.64 0.656 3.904 0.824 4.288C0.86 4.384 0.884 4.384 0.884 4.492C0.884 4.54 0.896 4.576 0.896 4.612H1.472C1.472 4.444 1.472 4.396 1.472 4.24C1.496 4.252 1.532 4.24 1.544 4.252C1.556 4.18 1.556 4.072 1.556 4L1.472 3.988C1.472 3.94 1.46 3.904 1.472 3.856C1.484 3.76 1.508 3.748 1.544 3.712C1.58 3.676 1.628 3.64 1.664 3.64C1.748 3.628 1.832 3.604 1.916 3.64L1.964 3.58L2.168 3.556C2.216 3.616 2.3 3.58 2.384 3.556C2.456 3.544 2.54 3.592 2.612 3.544C2.696 3.508 2.768 3.472 2.876 3.412C3.212 3.412 3.572 3.412 3.932 3.412C4.304 3.412 4.664 3.412 5.024 3.412C5.396 3.412 5.756 3.412 6.128 3.412C6.488 3.412 6.86 3.412 7.22 3.412C7.58 3.412 7.94 3.412 8.3 3.412L8.36 3.496C8.444 3.508 8.516 3.532 8.6 3.544C8.672 3.544 8.756 3.52 8.84 3.568C8.816 3.628 8.804 3.676 8.78 3.736H7.256C7.268 3.796 7.28 3.844 7.292 3.904H9.176C9.224 4 9.272 4.096 9.308 4.18C9.416 4.408 9.596 4.48 9.764 4.408C9.884 4.36 9.956 4.264 10.004 4.12C10.004 4.108 10.016 4.096 10.016 4.084C10.076 3.904 10.076 3.676 9.992 3.508C9.98 3.472 9.968 3.436 9.944 3.4C10.136 3.472 10.328 3.412 10.484 3.568C10.532 3.712 10.616 3.76 10.7 3.82C10.856 3.592 11.06 3.592 11.252 3.532C11.264 3.412 11.264 3.304 11.264 3.196H13.652C13.688 3.244 13.7 3.304 13.724 3.352L13.868 3.364L13.904 3.448C13.976 3.412 14.036 3.364 14.12 3.316C14.3 3.34 14.504 3.304 14.696 3.316C14.816 3.328 14.924 3.328 15.044 3.316C15.164 3.304 15.296 3.328 15.416 3.316C15.512 3.316 15.608 3.34 15.704 3.316C15.8 3.292 15.896 3.328 15.992 3.316C16.112 3.316 16.244 3.328 16.364 3.316C16.484 3.304 16.616 3.328 16.736 3.316C16.916 3.316 17.096 3.304 17.264 3.316C17.372 3.328 17.48 3.328 17.588 3.316C17.696 3.292 17.792 3.328 17.9 3.316C18.008 3.316 18.128 3.34 18.236 3.316C18.344 3.292 18.452 3.328 18.56 3.328C18.752 3.316 18.944 3.304 19.124 3.316C19.244 3.328 19.34 3.328 19.46 3.316C19.58 3.304 19.7 3.328 19.82 3.316C19.952 3.316 20.096 3.304 20.228 3.304C20.372 3.304 20.516 3.316 20.66 3.316C20.816 3.328 20.864 3.388 20.864 3.604C20.864 3.748 20.864 4.384 20.876 4.528C21.38 4.54 21.428 4.54 22.016 4.54C22.064 5.548 22.856 5.644 23.42 5.416C23.54 5.44 23.636 5.56 23.792 5.524C23.816 5.488 23.84 5.428 23.876 5.38C24.02 5.188 24.2 5.08 24.404 5.068C24.692 5.056 24.956 5.116 25.232 5.248C25.316 5.296 25.4 5.344 25.436 5.488C25.508 5.44 25.58 5.404 25.616 5.38H26C26.024 5.356 26.06 5.332 26.084 5.308C26.12 5.284 26.156 5.248 26.204 5.212C26.36 5.212 26.54 5.212 26.708 5.212C28.88 5.212 29.936 5.212 32.096 5.212C32.228 5.212 32.36 5.212 32.48 5.212C32.612 5.212 32.732 5.212 32.852 5.212C32.984 5.212 33.104 5.212 33.236 5.212C33.356 5.212 33.488 5.212 33.608 5.212C33.728 5.212 33.86 5.212 33.992 5.212C34.112 5.212 34.232 5.212 34.364 5.212C34.484 5.212 34.616 5.212 34.748 5.212C34.868 5.212 34.988 5.212 35.108 5.212C35.24 5.212 35.36 5.212 35.492 5.212C35.612 5.212 35.744 5.212 35.864 5.212C35.996 5.212 36.116 5.212 36.248 5.212C36.368 5.212 36.488 5.224 36.62 5.212C36.764 5.188 36.896 5.224 37.04 5.2C37.172 5.188 37.292 5.176 37.412 5.176C39.644 5.032 42.536 1.864 42.62 1.768H28.4ZM8.936 3.592C8.936 3.58 8.936 3.568 8.936 3.556C8.96 3.556 8.984 3.556 9.008 3.556C9.008 3.568 9.008 3.568 9.008 3.58C8.984 3.58 8.96 3.58 8.936 3.592ZM9.644 4.24C9.5 4.24 9.38 4.072 9.38 3.868C9.38 3.652 9.5 3.484 9.644 3.484C9.8 3.484 9.908 3.652 9.908 3.868C9.908 4.072 9.8 4.24 9.644 4.24ZM10.952 3.436C10.952 3.436 10.952 3.436 10.952 3.424C10.964 3.424 10.976 3.424 10.988 3.424C11 3.424 11 3.436 11 3.436C10.976 3.436 10.964 3.436 10.952 3.436ZM23.3 5.104C23.012 5.32 22.556 5.2 22.448 5.02C22.388 4.912 22.352 4.78 22.328 4.54H23.516C23.528 4.792 23.456 4.996 23.3 5.104Z" fill="white"/>
</svg>
