<svg width="10" height="10" viewBox="0 0 10 10" fill="none" xmlns="http://www.w3.org/2000/svg">
<path d="M1.59 4.65C0.45 5.79 0.87 7.17 1.98 8.28C3.09 9.39 4.46 9.81 5.6 8.67L1.59 4.65ZM4.19 1.6H4.51L4.98 1.13H5.3L6.11 1.94L6.88 1.17L7.07 0.97L6.15 0.0499998L4.37 0.0799994L3.79 0.66L3.8 0.679999L1.99 1.51L0.37 3.14L0.12 4.45L0.34 4.66L0.78 3.5L2.22 2.08L4.19 1.6ZM8.21 4.33L5.93 2.05L5.64 2.34C4.87 2.06 4.09 2.16 3.37 2.87C5.37 4.87 5.91 5.44 7.39 6.88C8.1 6.17 8.2 5.38 7.92 4.62L8.21 4.33ZM1.52 4.15L6.11 8.74L7.46 7.39L2.87 2.8L1.52 4.15ZM9.26 2.44L7.82 0.99L7.24 0.97L6.18 2.03L6.48 2.33L7.93 3.77L8.23 4.08L9.28 3.02L9.26 2.44Z" fill="white"/>
</svg>
