<svg width="25" height="14" viewBox="0 0 25 14" fill="none" xmlns="http://www.w3.org/2000/svg">
<path d="M13.462 4.126C13.448 4.126 13.434 4.126 13.42 4.126C13.378 4.14 13.322 4.14 13.28 4.14H13.266C13.238 4.14 13.224 4.154 13.224 4.168C13.224 4.196 13.21 4.21 13.196 4.224C13.168 4.252 13.126 4.238 13.098 4.238C13.098 4.238 13.084 4.224 13.07 4.224C13.084 4.294 13.084 4.364 13.084 4.392H20.91C20.91 4.35 20.91 4.322 20.91 4.28C20.91 4.238 20.91 4.182 20.91 4.14C20.91 4.112 20.91 4.112 20.91 4.098C20.896 4.098 20.882 4.098 20.868 4.098C20.784 4.098 20.714 4.098 20.644 4.098C20.616 4.098 20.602 4.098 20.602 4.098C20.588 4.112 20.588 4.112 20.588 4.126C20.602 4.14 20.602 4.168 20.588 4.182C20.574 4.196 20.56 4.196 20.546 4.196C20.434 4.196 20.336 4.196 20.252 4.21C20.21 4.21 20.196 4.182 20.182 4.154C20.154 4.07 20.098 4.084 20.042 4.098C20.014 4.098 19.986 4.112 19.958 4.098C19.916 4.098 19.888 4.098 19.874 4.098C19.86 4.112 19.86 4.126 19.846 4.154C19.846 4.196 19.818 4.21 19.79 4.21C19.692 4.21 19.608 4.21 19.524 4.21C19.51 4.21 19.454 4.21 19.454 4.154C19.44 4.112 19.412 4.098 19.356 4.098C19.314 4.098 19.272 4.098 19.23 4.098C19.202 4.098 19.174 4.098 19.16 4.098C19.118 4.098 19.104 4.098 19.104 4.126C19.104 4.154 19.09 4.182 19.076 4.196C19.048 4.224 19.02 4.224 18.978 4.224C18.964 4.21 18.95 4.21 18.936 4.224C18.922 4.224 18.908 4.224 18.894 4.21C18.866 4.196 18.866 4.168 18.866 4.14C18.866 4.126 18.866 4.126 18.866 4.112C18.838 4 18.824 3.986 18.726 4C18.684 4 18.628 4 18.586 4.014C18.53 4.014 18.474 4.028 18.418 4.028C18.39 4.028 18.376 4.028 18.348 4.028C18.292 4.042 18.208 4.056 18.166 3.944C18.166 3.93 18.166 3.93 18.152 3.93C18.138 3.93 18.138 3.93 18.138 3.93C18.082 3.93 18.04 3.93 17.984 3.93C17.97 3.916 17.942 3.916 17.928 3.916C17.872 3.916 17.83 3.916 17.774 3.916C17.662 3.902 17.55 3.902 17.438 3.888C17.41 3.888 17.382 3.888 17.354 3.888C17.284 3.874 17.214 3.86 17.158 3.93C17.144 3.944 17.13 3.944 17.116 3.93C17.06 3.916 17.018 3.944 16.99 3.972C16.976 3.986 16.962 4 16.948 4C16.934 4.014 16.906 4.042 16.892 4.056C16.878 4.07 16.864 4.084 16.85 4.112L16.808 4.14L16.822 4.098C16.85 3.972 16.808 3.902 16.766 3.818C16.766 3.804 16.752 3.79 16.752 3.776C16.71 3.706 16.682 3.664 16.626 3.636C16.57 3.608 16.57 3.552 16.57 3.51C16.57 3.468 16.57 3.426 16.57 3.37C16.57 3.272 16.57 3.174 16.57 3.076V2.782C16.57 2.418 16.584 2.026 16.57 1.648C16.57 1.536 16.57 1.424 16.57 1.312C16.584 1.032 16.584 0.751999 16.556 0.472C16.556 0.458 16.556 0.429999 16.556 0.402C16.542 0.318 16.542 0.219999 16.5 0.136C16.486 0.136 16.486 0.122 16.486 0.122C16.472 0.0939994 16.458 0.0799996 16.458 0.0379993H16.374C16.36 0.107999 16.36 0.163999 16.36 0.219999C16.36 0.248 16.36 0.262 16.36 0.276V0.654C16.36 0.947999 16.36 1.256 16.36 1.55C16.36 1.69 16.374 1.816 16.374 1.956C16.374 2.11 16.374 2.278 16.374 2.432C16.374 2.6 16.374 2.768 16.374 2.936C16.36 3.02 16.36 3.104 16.36 3.174C16.36 3.202 16.36 3.216 16.332 3.23C16.248 3.286 16.192 3.356 16.122 3.44C16.094 3.482 16.052 3.524 16.024 3.552C15.996 3.58 15.982 3.58 15.954 3.594C15.814 3.608 15.674 3.608 15.534 3.608C15.478 3.608 15.422 3.608 15.366 3.608C15.282 3.608 15.184 3.608 15.086 3.608C14.96 3.608 14.834 3.608 14.708 3.608C14.582 3.608 14.456 3.608 14.316 3.608C14.092 3.608 13.868 3.608 13.644 3.622C13.56 3.636 13.532 3.678 13.532 3.748C13.518 3.776 13.518 3.804 13.518 3.832C13.504 3.888 13.49 3.944 13.504 4C13.518 4.014 13.504 4.014 13.504 4.028C13.532 4.07 13.546 4.098 13.532 4.112C13.518 4.126 13.49 4.126 13.462 4.126ZM16.108 3.748C16.164 3.706 16.248 3.72 16.29 3.762C16.346 3.818 16.346 3.888 16.304 3.944L16.29 3.958L16.094 3.762L16.108 3.748ZM16.08 3.776L16.094 3.762L16.29 3.958L16.276 3.972C16.248 3.986 16.22 4 16.192 4C16.15 4 16.122 3.986 16.094 3.958C16.052 3.916 16.038 3.832 16.08 3.776ZM14.722 4.112C14.736 4.042 14.792 3.986 14.862 3.986C14.932 3.986 14.988 4.042 15.002 4.112V4.126H14.722V4.112ZM15.002 4.126V4.14C14.988 4.21 14.932 4.266 14.862 4.266C14.792 4.266 14.736 4.21 14.722 4.14V4.126H15.002ZM12.916 6.758H13.91V4.49H13.084C13.028 4.84 12.916 5.708 12.916 6.576C12.916 6.632 12.916 6.688 12.916 6.758ZM19.174 4.476H18.614C18.6 4.476 18.572 4.504 18.572 4.532V6.702C18.572 6.73 18.6 6.758 18.614 6.758H19.174C19.202 6.758 19.23 6.73 19.23 6.702V4.532C19.23 4.518 19.216 4.504 19.202 4.49C19.202 4.476 19.188 4.476 19.174 4.476ZM20.616 7.108C20.658 7.122 20.714 7.122 20.756 7.122C20.798 7.108 20.84 7.108 20.882 7.108C20.896 7.122 20.896 7.108 20.91 7.108C20.91 7.108 20.91 7.108 20.91 7.08C20.91 7.024 20.91 6.968 20.91 6.912C20.91 6.898 20.896 6.87 20.896 6.842C20.896 6.842 20.896 6.842 20.896 6.828H12.916C12.916 6.912 12.916 7.01 12.916 7.094C12.93 7.08 12.93 7.066 12.944 7.052C12.958 7.01 12.986 7.024 13 7.024C13.028 7.024 13.042 7.024 13.07 7.024C13.14 7.024 13.196 7.01 13.266 7.094C13.322 7.15 13.406 7.15 13.49 7.136C13.532 7.136 13.588 7.122 13.63 7.136V7.122C13.644 7.108 13.644 7.108 13.644 7.108C13.658 7.066 13.714 7.024 13.784 7.024C13.854 7.01 13.938 7.024 13.98 7.066C13.98 7.066 13.994 7.08 13.994 7.094C14.022 7.122 14.05 7.15 14.092 7.136C14.12 7.122 14.148 7.108 14.176 7.108C14.19 7.108 14.204 7.108 14.218 7.108C14.232 7.108 14.26 7.108 14.288 7.108C14.316 7.122 14.344 7.122 14.358 7.108C14.372 7.094 14.386 7.08 14.386 7.052C14.386 7.038 14.386 7.024 14.4 7.024C14.442 7.01 14.498 7.01 14.54 7.01C14.582 7.024 14.61 7.024 14.652 7.01C14.694 7.01 14.694 7.038 14.708 7.052C14.708 7.066 14.708 7.066 14.708 7.08H14.722C14.736 7.094 14.764 7.108 14.792 7.108C14.848 7.108 14.904 7.122 14.96 7.15C15.016 7.192 15.086 7.22 15.156 7.248C15.24 7.304 15.338 7.346 15.408 7.402C15.422 7.416 15.436 7.43 15.45 7.43C15.492 7.472 15.534 7.5 15.576 7.5C15.66 7.486 15.73 7.514 15.8 7.556C15.814 7.556 15.828 7.57 15.842 7.57C15.87 7.584 15.912 7.612 15.94 7.626C16.01 7.654 16.08 7.682 16.15 7.724C16.164 7.724 16.164 7.724 16.164 7.724C16.178 7.724 16.192 7.724 16.206 7.738C16.206 7.738 16.22 7.752 16.206 7.766C16.206 7.822 16.178 7.836 16.136 7.836C16.122 7.836 16.122 7.836 16.108 7.836C16.08 7.85 16.066 7.85 16.052 7.836C16.024 7.836 16.024 7.836 16.024 7.836C16.024 7.85 16.024 7.864 16.024 7.864V7.878C16.038 7.92 16.038 7.948 16.052 7.99C16.066 8.116 16.094 8.242 16.08 8.368C16.066 8.564 16.052 8.774 16.094 8.97C16.108 9.026 16.094 9.054 16.066 9.082C15.954 9.152 15.968 9.264 15.968 9.376L15.982 9.404C15.982 9.53 15.996 9.656 15.996 9.782C15.996 9.866 15.982 9.964 15.982 10.048C15.968 10.09 15.968 10.118 15.968 10.16C15.968 10.216 15.968 10.23 16.01 10.244C16.066 10.272 16.066 10.314 16.066 10.356C16.066 10.398 16.066 10.44 16.066 10.482C16.066 10.58 16.066 10.692 16.08 10.804C16.08 10.832 16.08 10.846 16.08 10.874C16.08 10.972 16.08 11.042 16.15 11.126C16.178 11.14 16.192 11.168 16.192 11.182H17.634C17.648 11.182 17.648 11.182 17.662 11.182C17.718 11.168 17.718 11.14 17.718 11.07V11.056C17.704 10.818 17.69 10.608 17.718 10.342C17.718 10.328 17.718 10.328 17.718 10.314C17.718 10.286 17.732 10.258 17.746 10.23C17.788 10.202 17.788 10.146 17.788 10.09C17.774 10.062 17.774 10.02 17.774 9.978C17.76 9.894 17.746 9.824 17.746 9.74C17.746 9.684 17.732 9.642 17.718 9.6C17.704 9.502 17.69 9.39 17.76 9.278L17.746 9.264V9.25C17.732 9.166 17.718 9.068 17.718 8.97C17.718 8.914 17.718 8.872 17.718 8.83C17.718 8.732 17.718 8.634 17.732 8.536C17.746 8.382 17.76 8.228 17.704 8.074C17.69 8.032 17.69 7.976 17.676 7.934C17.676 7.85 17.676 7.78 17.62 7.724C17.606 7.71 17.592 7.696 17.606 7.668C17.606 7.654 17.606 7.64 17.62 7.626C17.634 7.626 17.648 7.626 17.648 7.612C17.704 7.584 17.76 7.542 17.802 7.556C17.844 7.584 17.872 7.57 17.9 7.542L17.914 7.528L17.942 7.514C18.012 7.472 18.082 7.416 18.152 7.36C18.18 7.346 18.208 7.332 18.222 7.332C18.25 7.346 18.264 7.36 18.292 7.388C18.348 7.486 18.432 7.528 18.572 7.528C18.628 7.542 18.684 7.542 18.74 7.542C18.88 7.542 19.006 7.542 19.146 7.556C19.174 7.556 19.216 7.556 19.23 7.542C19.244 7.5 19.286 7.472 19.314 7.444C19.342 7.43 19.356 7.416 19.37 7.402C19.412 7.36 19.454 7.304 19.454 7.276C19.426 7.206 19.426 7.136 19.44 7.08C19.454 7.024 19.468 6.996 19.524 6.996H19.552C19.608 7.01 19.678 7.01 19.748 6.996C19.776 6.996 19.804 6.996 19.832 7.024C19.846 7.038 19.846 7.052 19.846 7.08C19.846 7.094 19.846 7.108 19.86 7.108C19.86 7.122 19.874 7.122 19.888 7.122C19.93 7.122 19.972 7.122 20.014 7.122C20.056 7.122 20.084 7.122 20.112 7.122C20.168 7.122 20.168 7.108 20.168 7.094C20.182 6.996 20.238 6.996 20.294 6.996C20.364 6.996 20.42 6.996 20.49 6.996H20.504C20.532 6.996 20.56 7.01 20.574 7.024C20.588 7.038 20.588 7.052 20.588 7.08C20.574 7.094 20.574 7.108 20.616 7.108ZM16.85 7.248C16.78 7.248 16.738 7.192 16.738 7.122C16.738 7.052 16.78 6.996 16.85 6.996C16.92 6.996 16.976 7.052 16.976 7.122C16.976 7.192 16.92 7.248 16.85 7.248ZM18.488 6.758V4.476L14.722 4.49V6.758H18.488ZM14.596 4.49H14.05C14.022 4.49 13.994 4.504 13.994 4.532V6.702C13.994 6.73 14.022 6.758 14.05 6.758H14.596C14.624 6.758 14.652 6.73 14.652 6.702V4.532C14.652 4.518 14.638 4.518 14.638 4.504C14.624 4.49 14.61 4.49 14.596 4.49ZM11.152 8.172C11.278 8.228 11.404 8.256 11.572 8.256H11.586C11.586 8.256 11.6 8.256 11.614 8.27C11.614 8.088 11.614 7.864 11.614 7.612C11.432 7.57 11.25 7.402 11.25 7.388L8.94 4.98H11.6C11.6 4.714 11.6 4.504 11.6 4.378H7.68C7.316 4.378 7.008 4.658 6.994 4.672C6.98 4.686 5.636 6.03 5.258 6.436C5.006 6.702 4.824 6.786 4.74 6.814C4.712 6.828 4.67 6.842 4.628 6.842H3.13H3.116C3.088 6.842 3.046 6.842 3.046 6.814C3.032 6.744 3.018 6.688 3.032 6.632C3.046 6.604 3.06 6.604 3.074 6.604C3.102 6.59 3.13 6.618 3.13 6.646C3.144 6.674 3.144 6.716 3.158 6.744V6.758H3.34L3.256 6.534V5.386L3.382 4.952C3.382 4.966 3.368 4.966 3.354 4.966C3.284 4.994 3.256 5.036 3.228 5.106C3.214 5.134 3.214 5.162 3.2 5.19C3.172 5.246 3.158 5.302 3.144 5.358C3.144 5.386 3.13 5.414 3.102 5.428C3.088 5.442 3.06 5.442 3.018 5.428C2.92 5.4 2.822 5.4 2.724 5.4C2.696 5.4 2.682 5.4 2.654 5.4C2.542 5.4 2.416 5.414 2.276 5.456C2.248 5.47 2.234 5.47 2.234 5.512C2.234 5.568 2.248 5.638 2.248 5.694V5.708H3.088V5.764H2.248V5.778H3.088V5.834H2.262V5.848H3.088V5.904H2.262V5.918H3.088V5.974H2.262V5.988H3.088V6.044H2.262C2.262 6.058 2.262 6.058 2.262 6.058H3.088V6.114H2.276V6.128H3.088V6.184H2.276C2.276 6.198 2.276 6.198 2.276 6.198H3.088V6.268H2.276C2.276 6.268 2.276 6.268 2.276 6.282H3.088V6.338H2.276C2.262 6.38 2.262 6.436 2.248 6.492C2.248 6.534 2.262 6.562 2.304 6.562C2.36 6.576 2.374 6.59 2.374 6.646C2.388 6.716 2.388 6.814 2.402 6.898C2.444 7.08 2.514 7.29 2.724 7.416C2.766 7.444 2.822 7.472 2.878 7.472L4.81 7.458C4.81 7.458 5.076 7.458 5.608 6.926C6.196 6.338 7.456 5.078 7.47 5.064C7.47 5.064 7.582 4.98 7.778 4.98C7.89 4.98 7.946 4.98 8.016 4.98C8.058 4.98 8.1 5.022 8.128 5.064C8.142 5.064 8.142 5.078 8.142 5.078L11.152 8.172ZM9.234 4.154C9.094 4.154 8.94 4.154 8.8 4.154C8.66 4.154 8.534 4.154 8.394 4.154C8.226 4.154 8.044 4.154 7.876 4.154C7.582 4.14 7.274 4.14 6.98 4.154C6.854 4.168 6.742 4.238 6.63 4.364C6.616 4.392 6.602 4.42 6.56 4.42C6.518 4.42 6.49 4.42 6.462 4.42C6.392 4.42 6.308 4.42 6.238 4.378C6.21 4.35 6.168 4.364 6.126 4.364C6.098 4.364 6.07 4.364 6.042 4.364C6 4.364 5.958 4.364 5.902 4.35C5.874 4.35 5.86 4.35 5.86 4.35C5.79 4.42 5.706 4.42 5.622 4.42C5.608 4.42 5.594 4.42 5.566 4.42C5.496 4.42 5.412 4.42 5.342 4.42C5.272 4.42 5.216 4.42 5.16 4.42C4.908 4.42 4.67 4.434 4.46 4.518C4.376 4.546 4.306 4.588 4.236 4.616C4.18 4.644 4.11 4.672 4.04 4.7L3.97 4.742C3.844 4.798 3.704 4.854 3.564 4.896L3.55 4.91C3.522 4.91 3.494 4.924 3.466 4.938L3.326 5.4V6.52L3.424 6.758H4.628C4.656 6.758 4.684 6.758 4.712 6.744C4.796 6.716 4.964 6.632 5.202 6.38C5.566 5.974 6.924 4.63 6.938 4.616C6.952 4.602 7.274 4.294 7.68 4.294H10.34C10.284 4.266 10.228 4.238 10.172 4.182C10.102 4.126 10.004 4.126 9.92 4.14C9.738 4.154 9.556 4.154 9.388 4.154C9.332 4.154 9.276 4.154 9.234 4.154ZM11.614 7.528C11.614 6.8 11.614 5.792 11.6 5.05H9.122L11.306 7.332C11.306 7.346 11.46 7.486 11.614 7.528ZM11.712 8.788C11.712 8.788 11.712 8.914 11.712 9.04C11.726 9.194 11.74 9.264 11.754 9.292H12.608C12.664 9.292 12.72 9.278 12.762 9.236C12.93 9.138 12.986 8.998 12.986 8.97C12.986 8.942 12.972 8.914 12.972 8.872C12.972 8.816 12.958 8.76 12.944 8.676C12.902 8.214 12.818 7.36 12.818 6.59C12.818 5.596 12.958 4.546 12.986 4.42C12.986 4.42 12.986 4.42 12.986 4.406C12.986 4.364 12.972 4.112 12.832 3.972C12.748 3.888 12.636 3.846 12.51 3.846H11.81C11.81 3.846 11.81 3.846 11.796 3.846C11.782 3.846 11.768 3.846 11.74 3.86C11.726 3.888 11.712 3.916 11.712 3.972V8.788ZM21.358 6.73C21.4 6.73 21.442 6.73 21.484 6.73L22.002 6.716C22.618 6.716 23.248 6.716 23.878 6.716C23.906 6.716 23.934 6.716 23.948 6.702C23.962 6.688 23.976 6.66 23.962 6.632C23.962 6.618 23.976 6.604 23.976 6.59C23.976 6.59 23.976 6.576 23.976 6.562L23.99 6.31C24.004 6.072 24.004 5.848 24.018 5.61C24.018 5.372 24.018 5.162 24.004 4.924C23.99 4.812 23.99 4.686 23.99 4.56C23.99 4.504 23.976 4.504 23.92 4.504C23.15 4.504 22.352 4.504 21.596 4.504H21.05C21.036 4.504 21.036 4.504 21.022 4.504C21.008 4.504 20.994 4.504 20.98 4.504C20.952 4.504 20.938 4.49 20.938 4.476H19.3V6.758H20.924C20.938 6.73 20.966 6.716 21.008 6.73C21.12 6.73 21.246 6.73 21.358 6.73ZM9.038 6.954C9.038 6.968 9.066 6.982 9.08 6.982C9.108 6.982 9.122 6.968 9.122 6.954C9.122 6.926 9.108 6.912 9.08 6.912C9.066 6.912 9.038 6.926 9.038 6.954ZM8.954 7.528C9.262 7.528 9.57 7.528 9.878 7.528C10.046 7.528 10.214 7.528 10.382 7.528C10.396 7.528 10.41 7.528 10.41 7.528L8.086 5.134C8.086 5.12 8.086 5.12 8.072 5.12C8.058 5.092 8.03 5.064 8.016 5.064C7.946 5.064 7.89 5.05 7.778 5.05C7.61 5.05 7.526 5.12 7.526 5.12C7.484 5.162 6.238 6.408 5.664 6.982C5.104 7.542 4.824 7.542 4.796 7.542H3.256C3.27 7.556 3.27 7.556 3.27 7.57C3.284 7.612 3.312 7.64 3.354 7.64C3.382 7.64 3.424 7.654 3.452 7.654C3.494 7.654 3.522 7.668 3.55 7.668C3.606 7.682 3.634 7.696 3.634 7.752C3.634 7.794 3.648 7.836 3.676 7.864C3.704 7.92 3.69 7.962 3.676 8.004C3.662 8.018 3.662 8.018 3.662 8.032C3.606 8.186 3.522 8.312 3.424 8.452C3.41 8.466 3.396 8.494 3.382 8.522C3.158 8.844 2.934 9.18 2.71 9.53C2.556 9.782 2.374 10.034 2.22 10.272C2.136 10.398 2.052 10.524 1.968 10.65C1.898 10.762 1.828 10.874 1.758 10.972C1.618 11.182 1.478 11.392 1.338 11.602C1.226 11.756 1.128 11.91 1.03 12.05C0.96 12.162 0.89 12.274 0.82 12.372C0.82 12.386 0.806 12.386 0.792 12.386V12.428H0.806C0.918 12.54 1.072 12.568 1.212 12.582C1.254 12.596 1.296 12.596 1.352 12.61C1.94 12.736 2.556 12.848 3.088 12.946C3.284 12.988 3.466 13.016 3.648 13.03H3.662C3.676 13.03 3.704 13.044 3.718 13.058H3.732C3.746 13.03 3.774 13.03 3.802 13.03C3.83 13.016 3.858 13.016 3.872 13.002C3.998 12.918 4.082 12.694 4.054 12.554C4.026 12.456 4.012 12.358 4.04 12.26C4.068 12.148 4.11 12.022 4.166 11.924C4.222 11.812 4.292 11.7 4.348 11.588C4.46 11.392 4.558 11.196 4.67 10.986C4.754 10.818 4.894 10.692 5.076 10.636C5.23 10.58 5.328 10.412 5.286 10.258C5.23 10.034 5.258 9.824 5.398 9.572C5.426 9.53 5.454 9.46 5.524 9.446C5.58 9.432 5.65 9.418 5.706 9.418C5.79 9.404 5.86 9.404 5.93 9.376C6.07 9.348 6.21 9.348 6.364 9.348C6.42 9.348 6.476 9.348 6.532 9.348C6.77 9.334 7.022 9.334 7.26 9.348C7.386 9.348 7.512 9.348 7.638 9.348C7.834 9.348 7.96 9.236 8.002 9.026C8.016 8.956 8.016 8.872 8.016 8.802V8.76C8.016 8.69 8.016 8.606 8.016 8.522C8.016 8.368 8.016 8.214 8.03 8.046C8.03 7.99 8.072 7.934 8.128 7.906C8.142 7.906 8.17 7.906 8.198 7.906C8.24 7.948 8.31 7.962 8.38 7.934C8.45 7.92 8.506 7.906 8.562 7.892C8.59 7.892 8.618 7.892 8.632 7.892C8.744 7.864 8.772 7.836 8.786 7.71C8.786 7.696 8.786 7.682 8.786 7.668C8.8 7.654 8.8 7.626 8.814 7.612H7.232C7.204 7.612 7.19 7.584 7.19 7.57C7.19 7.542 7.204 7.528 7.232 7.528H8.954ZM7.946 7.682C7.988 7.682 8.002 7.696 8.002 7.738C8.002 7.766 7.988 7.794 7.946 7.794C7.918 7.794 7.89 7.766 7.89 7.738C7.89 7.696 7.918 7.682 7.946 7.682ZM7.554 7.864C7.652 7.864 7.736 7.864 7.778 7.864C7.806 7.864 7.82 7.864 7.834 7.892C7.848 7.892 7.848 7.92 7.834 7.934C7.82 7.99 7.834 8.032 7.834 8.088C7.834 8.116 7.834 8.144 7.834 8.158C7.834 8.228 7.834 8.284 7.834 8.354C7.848 8.522 7.848 8.704 7.834 8.886C7.806 9.194 7.666 9.25 7.4 9.264C7.274 9.264 7.134 9.264 7.008 9.264C6.854 9.264 6.7 9.264 6.532 9.264C6.35 9.25 6.154 9.25 5.958 9.264C5.874 9.264 5.832 9.236 5.818 9.152C5.776 8.984 5.776 8.816 5.776 8.648C5.776 8.48 5.776 8.312 5.776 8.144V7.99V7.976C5.776 7.948 5.776 7.92 5.818 7.906C5.846 7.906 5.888 7.892 5.902 7.948C5.93 7.976 5.958 7.99 6.014 7.99C6.07 7.99 6.112 7.99 6.168 8.004C6.294 8.018 6.364 8.088 6.378 8.214C6.392 8.256 6.392 8.298 6.392 8.34C6.406 8.424 6.406 8.494 6.42 8.564C6.448 8.774 6.56 8.956 6.77 9.124C6.784 9.124 6.784 9.124 6.784 9.138C6.798 9.152 6.812 9.166 6.826 9.152C6.84 9.152 6.854 9.138 6.854 9.124C6.882 9.068 6.896 9.054 6.84 9.012C6.714 8.942 6.616 8.802 6.574 8.648C6.532 8.494 6.56 8.326 6.63 8.2C6.658 8.158 6.7 8.13 6.742 8.102C6.84 8.046 6.91 7.976 6.994 7.906C7.036 7.864 7.078 7.864 7.134 7.864C7.19 7.864 7.386 7.864 7.554 7.864ZM7.512 5.946C7.414 5.946 7.344 5.876 7.344 5.792C7.344 5.708 7.414 5.638 7.512 5.638C7.596 5.638 7.666 5.708 7.666 5.792C7.666 5.876 7.596 5.946 7.512 5.946ZM8.87 7.22C8.856 7.22 8.842 7.206 8.828 7.206C8.814 7.192 8.814 7.178 8.814 7.15C8.814 7.136 8.814 7.122 8.828 7.108L8.996 6.954L8.842 6.8C8.828 6.8 8.828 6.772 8.828 6.758C8.828 6.744 8.828 6.73 8.842 6.716C8.87 6.688 8.912 6.688 8.94 6.716L9.08 6.856L9.206 6.73C9.234 6.702 9.276 6.702 9.29 6.73C9.318 6.758 9.318 6.8 9.29 6.828L9.178 6.954L9.318 7.094C9.332 7.108 9.332 7.122 9.332 7.136C9.332 7.15 9.332 7.164 9.318 7.178C9.29 7.206 9.248 7.206 9.22 7.178L9.08 7.038L8.926 7.206C8.912 7.206 8.898 7.22 8.87 7.22ZM16.22 11.392C16.22 11.406 16.22 11.42 16.22 11.434C16.22 11.448 16.22 11.462 16.22 11.476C16.234 11.49 16.234 11.504 16.234 11.518C16.234 11.574 16.248 11.574 16.304 11.574C16.598 11.588 16.99 11.602 17.382 11.588C17.41 11.588 17.424 11.588 17.438 11.588C17.494 11.588 17.55 11.588 17.578 11.574C17.606 11.546 17.606 11.504 17.606 11.462C17.606 11.434 17.592 11.406 17.606 11.378C17.606 11.364 17.606 11.35 17.62 11.322V11.308H16.22C16.22 11.336 16.22 11.364 16.22 11.392Z" fill="white"/>
</svg>
