<svg width="21" height="11" viewBox="0 0 21 11" fill="none" xmlns="http://www.w3.org/2000/svg">
<path d="M20.66 1.104L20.288 0.719999H18.188L17.948 0.96H8.504L8.036 0.48H4.508L4.472 0.827999L4.4 1.32H4.22L4.028 1.56L3.956 1.944L3.812 2.292L3.62 2.544L3.44 2.748L2.792 2.904L2.648 3.06H2.024L1.748 3.336L2.192 3.588L2.492 3.9L2.648 4.176V4.476L2.576 4.704L2.336 5.004L1.688 5.736L1.22 6.456L0.86 7.272L0.572 8.184L0.464 8.856L0.428 9.408L0.464 9.684L3.392 10.536L3.632 10.476V10.32L3.404 10.152L3.272 9.528L3.584 8.28L3.728 8.04L3.992 7.836V7.512L4.076 7.188L4.208 7.02L4.4 6.96L4.724 6.936L5.048 7.008L5.444 7.224L5.864 7.356L6.308 7.404L6.884 7.368L7.52 7.2L7.94 7.008L8.456 6.576L9.644 5.412V5.28H9.8L10.46 4.596H10.796L11.216 5.004L19.916 4.596L20.204 4.5V3.18L20.084 3.06H19.64V2.664H20.66V1.104ZM8.24 6.348L8.048 6.576L7.748 6.804L7.424 6.972L6.944 7.104L6.464 7.152H6.056L5.564 7.008L5.276 6.78L5.108 6.444V6.072L5.18 5.712L5.36 5.448L5.588 5.244L5.696 5.232L5.744 5.436L5.852 5.82L6.008 6.084L6.188 6.252L6.296 6.156L6.176 6.012L6.092 5.868L6.068 5.676L6.116 5.412L6.356 5.088H7.208L7.832 5.112L8.072 5.196L8.252 5.376L8.336 5.664V6.06L8.24 6.348Z" fill="white"/>
</svg>
