<svg width="29" height="9" viewBox="0 0 29 9" fill="none" xmlns="http://www.w3.org/2000/svg">
<path d="M28.76 1.92V1.5L28.184 0.96H27.308V1.14H19.7L19.496 0.935999H16.964V0.516H16.544V0.864H14.684L14.336 0.516H12.632L12.188 0.144L12.092 0.0719998H10.604L10.448 0.192L10.196 0.636H9.764V0.383999H9.356L9.176 0.636L8.672 0.816L2.324 1.032L1.844 1.356L1.784 1.128L1.628 0.972H1.46H0.944L0.764 1.044L0.596 1.296L0.548 1.752L0.596 2.556L0.692 4.116L0.644 5.484L0.596 6.732L0.68 7.032L0.764 7.152L1.052 7.14L1.484 7.092L1.652 6.996L1.796 6.672L1.976 6.864L9.26 8.868L10.028 9H20.264H21.044L21.668 8.94L22.064 8.808L22.412 8.592L22.664 8.28L23.972 5.364L24.26 4.824L24.548 4.572L24.896 4.464H25.544L25.652 4.344V3.864L25.52 3.732H28.532L28.7 3.456H28.916V2.04H28.64L28.76 1.92ZM9.08 5.544L8.684 5.652H8.132L7.712 5.472L7.472 5.184L7.388 4.836L7.46 4.416L7.592 4.248L7.808 4.2L8.204 4.152L9.044 4.248L9.188 4.332L9.356 4.536L9.428 4.836L9.356 5.244L9.08 5.544ZM18.932 7.476V7.884H18.668H13.052V7.896H10.46L10.364 7.824V7.668L10.412 7.344L10.532 7.08L10.688 6.78L10.832 6.696L10.88 6.588V6.432L10.928 6.276L11.072 6.072L11.252 5.88H11.516L11.564 5.616L11.48 5.46L11.384 5.352L11.3 5.232V5.064L11.348 4.836L11.444 4.62L11.576 4.464L11.6 4.68L11.756 5.208L11.972 5.556L12.14 5.7L12.224 5.592L12.092 5.388L12.02 5.148L11.972 4.872L12.032 4.596L12.164 4.428H12.992L12.92 4.584V7.476H18.668V2.412H12.92V2.28H18.668H18.932V2.412V7.476ZM21.404 7.008L21.236 7.284L21.032 7.428L20.768 7.452L20.516 7.404L20.408 7.236L20.372 7.056V4.692L20.408 4.428L20.528 4.26L20.708 4.2H22.172L22.4 4.248L22.532 4.344L22.568 4.572L22.496 4.872L21.404 7.008Z" fill="white"/>
</svg>
