<svg width="16" height="16" viewBox="0 0 16 16" fill="none" xmlns="http://www.w3.org/2000/svg">
<path d="M8.06634 11.8833C8.24412 11.8833 8.39412 11.8222 8.51634 11.7C8.63856 11.5778 8.69967 11.4278 8.69967 11.25C8.69967 11.0722 8.63856 10.9222 8.51634 10.8C8.39412 10.6778 8.24412 10.6166 8.06634 10.6166C7.88856 10.6166 7.73856 10.6778 7.61634 10.8C7.49412 10.9222 7.43301 11.0722 7.43301 11.25C7.43301 11.4278 7.49412 11.5778 7.61634 11.7C7.73856 11.8222 7.88856 11.8833 8.06634 11.8833ZM7.48301 9.44998H8.46634C8.46634 9.16109 8.50245 8.8972 8.57467 8.65831C8.6469 8.41942 8.8719 8.14442 9.24967 7.83331C9.59412 7.54442 9.83856 7.26109 9.98301 6.98331C10.1275 6.70554 10.1997 6.39998 10.1997 6.06665C10.1997 5.47776 10.008 5.00553 9.62467 4.64998C9.24134 4.29442 8.73301 4.11665 8.09967 4.11665C7.55523 4.11665 7.07467 4.25276 6.65801 4.52498C6.24134 4.7972 5.93856 5.1722 5.74967 5.64998L6.63301 5.98331C6.75523 5.6722 6.93856 5.43053 7.18301 5.25831C7.42745 5.08609 7.71634 4.99998 8.04967 4.99998C8.42745 4.99998 8.73301 5.10276 8.96634 5.30831C9.19967 5.51387 9.31634 5.77776 9.31634 6.09998C9.31634 6.34442 9.24412 6.57498 9.09967 6.79165C8.95523 7.00831 8.74412 7.23331 8.46634 7.46665C8.13301 7.75553 7.88578 8.04165 7.72467 8.32498C7.56356 8.60831 7.48301 8.98331 7.48301 9.44998V9.44998ZM7.99967 14.6666C7.08856 14.6666 6.22745 14.4916 5.41634 14.1416C4.60523 13.7916 3.8969 13.3139 3.29134 12.7083C2.68579 12.1028 2.20801 11.3944 1.85801 10.5833C1.50801 9.7722 1.33301 8.91109 1.33301 7.99998C1.33301 7.07776 1.50801 6.21109 1.85801 5.39998C2.20801 4.58887 2.68579 3.88331 3.29134 3.28331C3.8969 2.68331 4.60523 2.20831 5.41634 1.85831C6.22745 1.50831 7.08856 1.33331 7.99967 1.33331C8.9219 1.33331 9.78856 1.50831 10.5997 1.85831C11.4108 2.20831 12.1163 2.68331 12.7163 3.28331C13.3163 3.88331 13.7913 4.58887 14.1413 5.39998C14.4913 6.21109 14.6663 7.07776 14.6663 7.99998C14.6663 8.91109 14.4913 9.7722 14.1413 10.5833C13.7913 11.3944 13.3163 12.1028 12.7163 12.7083C12.1163 13.3139 11.4108 13.7916 10.5997 14.1416C9.78856 14.4916 8.9219 14.6666 7.99967 14.6666ZM7.99967 13.6666C9.57745 13.6666 10.9163 13.1139 12.0163 12.0083C13.1163 10.9028 13.6663 9.56665 13.6663 7.99998C13.6663 6.4222 13.1163 5.08331 12.0163 3.98331C10.9163 2.88331 9.57745 2.33331 7.99967 2.33331C6.43301 2.33331 5.0969 2.88331 3.99134 3.98331C2.88579 5.08331 2.33301 6.4222 2.33301 7.99998C2.33301 9.56665 2.88579 10.9028 3.99134 12.0083C5.0969 13.1139 6.43301 13.6666 7.99967 13.6666Z" fill="white" fill-opacity="0.7"/>
</svg>
