<svg width="50" height="50" viewBox="0 0 50 50" fill="none" xmlns="http://www.w3.org/2000/svg">
<path d="M16.1076 19.1714H7.42188L16.5647 5.22852H25.2504L16.1076 19.1714Z" fill="white"/>
<path fill-rule="evenodd" clip-rule="evenodd" d="M16.4426 5H25.675L16.2324 19.4H7L16.4426 5ZM16.6895 5.45714L7.84643 18.9428H15.9855L24.8285 5.45714H16.6895Z" fill="white"/>
<path d="M16.1076 31.9716H7.42188L16.5647 18.0288H25.2504L16.1076 31.9716Z" fill="white"/>
<path fill-rule="evenodd" clip-rule="evenodd" d="M16.4426 17.7998H25.675L16.2324 32.1998H7L16.4426 17.7998ZM16.6895 18.2569L7.84643 31.7426H15.9855L24.8285 18.2569H16.6895Z" fill="white"/>
<path d="M16.1076 44.7714H7.42188L16.5647 30.8286H25.2504L16.1076 44.7714Z" fill="white"/>
<path fill-rule="evenodd" clip-rule="evenodd" d="M16.4426 30.6001H25.675L16.2324 45.0001H7L16.4426 30.6001ZM16.6895 31.0572L7.84643 44.5429H15.9855L24.8285 31.0572H16.6895Z" fill="white"/>
<path d="M34.8514 19.1714H43.5371L34.3943 5.22852H25.7086L34.8514 19.1714Z" fill="white"/>
<path fill-rule="evenodd" clip-rule="evenodd" d="M34.5183 5H25.286L34.7286 19.4H43.9609L34.5183 5ZM34.2714 5.45714L43.1145 18.9428H34.9755L26.1324 5.45714H34.2714Z" fill="white"/>
<path d="M34.8514 31.9716H43.5371L34.3943 18.0288H25.7086L34.8514 31.9716Z" fill="white"/>
<path fill-rule="evenodd" clip-rule="evenodd" d="M34.5183 17.7998H25.286L34.7286 32.1998H43.9609L34.5183 17.7998ZM34.2714 18.2569L43.1145 31.7426H34.9755L26.1324 18.2569H34.2714Z" fill="white"/>
<path d="M34.8514 44.7714H43.5371L34.3943 30.8286H25.7086L34.8514 44.7714Z" fill="white"/>
<path fill-rule="evenodd" clip-rule="evenodd" d="M34.5183 30.6001H25.286L34.7286 45.0001H43.9609L34.5183 30.6001ZM34.2714 31.0572L43.1145 44.5429H34.9755L26.1324 31.0572H34.2714Z" fill="white"/>
</svg>
