<svg width="14" height="13" viewBox="0 0 14 13" fill="none" xmlns="http://www.w3.org/2000/svg">
<mask id="path-1-inside-1_218_75" fill="white">
<path d="M7.19238 13C8.91629 13 10.5696 12.3152 11.7886 11.0962C13.0076 9.87721 13.6924 8.22391 13.6924 6.5C13.6924 4.77609 13.0076 3.12279 11.7886 1.90381C10.5696 0.68482 8.91629 6.89306e-08 7.19238 -2.60447e-07L7.19238 6.5L7.19238 13Z"/>
</mask>
<path d="M7.19238 13C8.91629 13 10.5696 12.3152 11.7886 11.0962C13.0076 9.87721 13.6924 8.22391 13.6924 6.5C13.6924 4.77609 13.0076 3.12279 11.7886 1.90381C10.5696 0.68482 8.91629 6.89306e-08 7.19238 -2.60447e-07L7.19238 6.5L7.19238 13Z" fill="white" stroke="white" stroke-width="2" mask="url(#path-1-inside-1_218_75)"/>
<circle cx="7.19238" cy="6.5" r="6" transform="rotate(-180 7.19238 6.5)" stroke="white"/>
</svg>
