<svg width="14" height="13" viewBox="0 0 14 13" fill="none" xmlns="http://www.w3.org/2000/svg">
<mask id="path-1-inside-1_218_74" fill="white">
<path d="M7.19238 6.45873e-07C5.46847 7.27507e-07 3.81517 0.68482 2.59619 1.90381C1.3772 3.12279 0.692383 4.77609 0.692383 6.5C0.692382 8.22391 1.3772 9.87721 2.59619 11.0962C3.81517 12.3152 5.46847 13 7.19238 13L7.19238 6.5L7.19238 6.45873e-07Z"/>
</mask>
<path d="M7.19238 6.45873e-07C5.46847 7.27507e-07 3.81517 0.68482 2.59619 1.90381C1.3772 3.12279 0.692383 4.77609 0.692383 6.5C0.692382 8.22391 1.3772 9.87721 2.59619 11.0962C3.81517 12.3152 5.46847 13 7.19238 13L7.19238 6.5L7.19238 6.45873e-07Z" fill="white" stroke="white" stroke-width="2" mask="url(#path-1-inside-1_218_74)"/>
<circle cx="7.19238" cy="6.5" r="6" stroke="white"/>
</svg>
