<svg width="5" height="5" viewBox="0 0 5 5" fill="none" xmlns="http://www.w3.org/2000/svg">
<path d="M2.78711 1L2.98177 0.843136C2.93428 0.784203 2.86265 0.749956 2.78696 0.75C2.71128 0.750044 2.63969 0.784373 2.59227 0.843361L2.78711 1ZM4.50008 2.71298L4.65672 2.90782C4.71571 2.8604 4.75004 2.78881 4.75008 2.71312C4.75013 2.63743 4.71588 2.5658 4.65695 2.51831L4.50008 2.71298ZM2.80553 4.40753L2.61087 4.5644C2.65836 4.62333 2.72999 4.65758 2.80567 4.65753C2.88136 4.65749 2.95295 4.62316 3.00037 4.56417L2.80553 4.40753ZM1.09255 2.69456L0.935914 2.49971C0.876926 2.54713 0.842597 2.61873 0.842553 2.69441C0.84251 2.7701 0.876756 2.84173 0.935689 2.88922L1.09255 2.69456ZM3.5515 1.94858L3.35684 2.10545C3.36805 2.11936 3.38072 2.13203 3.39464 2.14325L3.5515 1.94858ZM2.04114 3.45895L2.2358 3.30208C2.22459 3.28817 2.21191 3.2755 2.198 3.26429L2.04114 3.45895ZM3.56071 3.46816L3.40407 3.27331C3.38999 3.28463 3.37718 3.29744 3.36587 3.31152L3.56071 3.46816ZM2.03193 1.93937L2.18857 2.13422C2.20264 2.1229 2.21545 2.11009 2.22677 2.09601L2.03193 1.93937ZM2.59245 1.15686L3.35684 2.10545L3.74616 1.79172L2.98177 0.843136L2.59245 1.15686ZM3.39464 2.14325L4.34322 2.90764L4.65695 2.51831L3.70837 1.75392L3.39464 2.14325ZM3.00019 4.25067L2.2358 3.30208L1.84647 3.61581L2.61087 4.5644L3.00019 4.25067ZM2.198 3.26429L1.24942 2.49989L0.935689 2.88922L1.88427 3.65361L2.198 3.26429ZM4.34345 2.51813L3.40407 3.27331L3.71735 3.663L4.65672 2.90782L4.34345 2.51813ZM3.36587 3.31152L2.61068 4.25089L3.00037 4.56417L3.75556 3.6248L3.36587 3.31152ZM1.24919 2.8894L2.18857 2.13422L1.87529 1.74453L0.935914 2.49971L1.24919 2.8894ZM2.22677 2.09601L2.98195 1.15664L2.59227 0.843361L1.83708 1.78273L2.22677 2.09601Z" fill="#FFD600"/>
</svg>
