<svg width="29" height="11" viewBox="0 0 29 11" fill="none" xmlns="http://www.w3.org/2000/svg">
<path d="M16.652 4.432L16.988 4.612H28.196L28.328 4.408H28.652V3.784H28.316L28.208 3.58H16.952L16.652 3.76H16.124V3.964H15.836V3.856H15.716V3.568H16.652L16.94 3.388H28.232L28.28 3.196H28.364V3.124L28.196 3.04H19.328V2.836L19.028 2.56C18.68 2.56 18.356 2.56 18.056 2.548C17.54 2.536 16.976 2.536 16.748 2.5C16.28 2.452 15.776 2.308 14.852 2.128C14.372 2.044 13.94 1.984 13.616 1.948C13.424 1.924 13.244 1.912 13.088 1.9L13.112 1.804V1.288L13.076 1.24L12.992 1.348L12.872 1.468L12.752 1.528L11.576 1.684L10.88 1.576L10.82 1.468L10.472 1.348L10.304 0.916L10.196 0.688H9.764L9.704 0.904V1.492L9.668 1.54L9.62 1.564L9.236 1.588L8.948 1.744L9.668 2.116C9.188 2.188 8.708 2.26 8.216 2.344C7.388 2.476 6.356 2.632 5.576 2.74C4.772 2.848 3.812 2.92 3.008 2.968C2.54 3.004 2.084 3.028 1.616 3.04L1.448 3.064C1.34 3.076 1.184 3.1 1.028 3.136C0.884 3.172 0.788 3.22 0.728 3.292C0.692 3.328 0.668 3.364 0.656 3.4L0.56 4.456L0.788 5.716L0.836 7.852L1.208 8.272H1.544L1.676 8.2L1.796 7.924L2.156 5.776L2.66 5.8C2.984 5.812 3.416 5.824 3.932 5.824C4.988 5.86 6.008 5.848 6.596 5.884C7.172 5.896 7.472 6.136 7.556 6.34C7.64 6.52 7.208 7 6.836 7.528C6.644 7.816 6.548 8.08 6.5 8.284C6.464 8.404 6.452 8.512 6.452 8.62L6.716 8.716L6.728 8.776L6.452 8.872L6.44 9.352L6.248 9.472C6.236 9.508 6.236 9.532 6.248 9.568C6.248 9.628 6.272 9.712 6.308 9.808C6.344 9.892 6.428 9.964 6.488 10.012C6.524 10.048 6.56 10.072 6.608 10.084L6.884 10.132C7.112 10.168 7.436 10.228 8.048 10.36C8.636 10.492 9.224 10.552 9.656 10.6C9.908 10.636 10.148 10.648 10.364 10.66L10.568 10.528C10.7 10.444 10.844 10.336 11.024 10.228C11.18 10.12 11.372 9.988 11.504 9.88L11.732 9.7L11.756 9.652L11.768 9.604L11.732 8.992C11.732 8.98 11.744 8.968 11.78 8.956L12.056 8.8C12.38 8.62 12.668 8.644 12.872 8.656C12.968 8.656 13.076 8.704 13.16 8.74L13.316 8.812L13.64 9.04L14.888 10.012L14.948 9.928L14.972 9.7L14.528 9.244L14.492 9.148L14.468 8.944L14.504 8.608L14.576 8.212L14.72 7.708L14.912 7.144L15.08 6.748L15.2 6.532L15.332 6.412L15.536 6.316L15.884 6.208L16.52 6.124L17.888 6.052L19.94 5.992L22.28 5.944H25.184C25.436 5.932 25.676 5.932 25.892 5.944C26.264 5.956 26.648 5.98 26.744 6.016C26.84 6.064 26.912 6.136 26.972 6.232C27.008 6.28 27.032 6.328 27.056 6.376L27.248 7.06L27.32 7.144H27.512C27.524 6.916 27.548 6.712 27.572 6.508C27.608 6.172 27.656 5.788 27.692 5.644C27.728 5.512 27.812 5.416 27.896 5.332L28.052 5.224L28.46 4.972L28.508 4.912V4.864L28.46 4.804L28.184 4.78H16.928L16.628 4.624H15.716V4.336H15.836V4.216H16.124V4.432H16.652ZM10.136 8.56H10.028L8.24 8.596C8.24 8.464 8.348 8.188 8.48 8.032C8.612 7.9 8.468 7.864 8.564 7.576C8.66 7.276 9.116 7.036 9.284 6.94C9.44 6.844 9.284 6.556 9.248 6.424C9.236 6.316 9.344 5.98 9.452 5.836C9.536 5.728 9.644 5.704 9.704 5.692C9.752 5.872 9.836 6.076 9.944 6.22C10.04 6.364 10.148 6.472 10.268 6.556C10.328 6.604 10.4 6.64 10.46 6.676L10.58 6.532C10.532 6.496 10.496 6.448 10.46 6.388C10.376 6.292 10.316 6.184 10.28 6.052C10.244 5.956 10.232 5.836 10.22 5.728C10.496 5.74 10.856 5.752 11.18 5.752C11.504 5.752 11.732 5.824 11.888 5.908C11.972 5.944 12.056 5.992 12.116 6.052L12.32 6.232C12.428 6.34 12.536 6.472 12.536 6.616C12.536 6.76 12.476 6.856 12.416 6.916L12.308 7.012L10.136 8.56Z" fill="white"/>
</svg>
