<svg width="34" height="10" viewBox="0 0 34 10" fill="none" xmlns="http://www.w3.org/2000/svg">
<path d="M0.44 7.416L0.5 7.44L0.536 7.5C0.56 7.944 0.572 8.172 0.572 8.196C0.572 8.232 0.584 8.256 0.62 8.268C0.644 8.28 0.812 8.292 1.136 8.316L1.304 8.208V8.28L1.364 8.316L1.952 8.28L1.976 8.208H5.012L5.552 8.448V8.532L7.184 9.18H7.592L7.652 9.228H9.272V9.024L9.008 8.676C8.996 8.664 8.984 8.64 8.984 8.628C8.984 8.616 8.984 8.616 8.984 8.616L9.98 6.948H10.244L10.34 6.972L10.604 7.08C10.652 7.092 10.712 7.104 10.796 7.104C11.3 7.14 11.6 7.116 11.684 7.032C11.768 6.948 11.84 6.876 11.888 6.804C11.948 6.708 11.996 6.6 12.032 6.468L12.008 5.256L12.536 5.292L12.92 5.352H13.124V5.616H12.824V5.784H12.668V8.94H12.824V9.024H13.124V8.88L13.148 8.844H15.536V9.024H15.836V8.94H15.944L15.98 8.916V5.784H15.836V5.64H15.5V5.352H17.588L17.6 5.028H17.648L17.672 5.196L17.756 5.316H18.248C18.284 5.316 18.248 5.328 18.308 5.328C18.32 5.34 18.332 5.376 18.332 5.388V5.412H17.804L17.756 5.448V5.64L17.588 5.676L17.48 5.784V6.024H17.384L17.336 6.144L17.372 7.128L17.42 7.26H17.432V7.344L17.588 7.44H17.84L17.948 7.368H20.504L20.612 7.44H21.476L21.704 7.344V7.26H21.8V7.2H21.884V7.26L22.64 7.212V7.272H22.904V5.94H22.64V6L21.716 6.024L21.704 5.784L21.476 5.676H20.996C20.756 5.676 20.528 5.652 20.528 5.64L20.384 5.448H19.892L19.664 4.944H22.64L22.7 4.86H25.184L25.256 4.884H25.94L26.084 5.028H29.468L30.968 5.496H31.328L31.352 5.448H31.796V5.256L31.58 5.016H31.352V4.968H32.108L32.168 4.944H32.252L32.264 5.028H32.468L32.528 4.944L32.552 4.92L32.588 4.944H32.828C32.84 4.944 32.84 4.932 32.852 4.92V4.596V4.26H32.588L32.528 4.284L32.468 4.128H32.264L32.252 4.116L32.264 3.948L32.408 3.612C33.128 3.612 33.5 3.6 33.512 3.576C33.524 3.552 33.524 3.54 33.524 3.528V2.976C33.524 2.952 33.524 2.94 33.512 2.928C33.5 2.928 33.5 2.928 33.5 2.928H33.212L33.152 2.784H32L31.94 2.7H30.128V1.092H29.804L29.732 1.14V1.86L29.444 2.148V2.7L27.584 2.736H27.116V2.784L27.08 2.844H26.504H26.276L25.22 2.592L19.556 1.32H17.6H16.148L16.124 1.236H16.016L15.884 1.176H15.716L15.584 1.116V1.032V0.972H15.752V0.564L15.656 0.516H14.48L14.132 0.707999V1.02H14.72V1.056L14.648 1.092L14.6 1.14H13.82L13.664 1.284H13.508L13.388 1.32H12.92L9.188 2.172H9.032V1.956H8.984L8.96 1.968H8.708L8.684 1.956H8.648V2.028H8.564L8.54 2.112H8.444V2.256H8.54V2.292H8.24L8.06 2.556H7.676L7.304 3.144H7.136L7.376 2.76L6.68 2.736L6.476 2.592V2.388H2.984V2.556L2.324 2.592L2.204 2.736H2.012L1.928 2.64H1.772V2.532H1.424L1.412 2.616C0.968 2.628 0.74 2.652 0.716 2.676L0.608 2.772C0.584 2.784 0.56 3.252 0.536 4.176L0.476 4.224L0.452 4.56L0.476 4.584L0.536 7.08H0.452L0.44 7.416ZM22.76 2.928V2.64L23.84 2.868L23.768 2.892L22.76 2.928ZM20.804 6.084C20.804 6.048 20.852 5.976 20.948 5.976C21.008 5.976 21.068 6.036 21.068 6.084V7.176C21.068 7.188 21.068 7.2 21.056 7.212C21.044 7.248 21.008 7.26 20.948 7.26C20.852 7.26 20.804 7.212 20.804 7.116V6.084ZM17.564 2.016L19.448 1.968L22.304 2.556L22.364 2.592C22.4 2.604 22.424 2.652 22.424 2.7V2.892H20.804V2.796H19.736V2.76L19.664 2.736V2.7H19.436V2.388H18.716V2.256H17.564V2.016ZM13.592 2.796H14.228V2.736H15.152L15.176 2.784V3.084H14.972L14.924 3.06H13.976V2.976H13.592V2.796ZM10.676 6.996L10.508 6.948L10.376 6.804L10.508 6.852L10.676 6.948C10.676 6.96 10.676 6.96 10.688 6.948C10.7 6.948 10.724 6.924 10.76 6.912C10.796 6.9 10.82 6.876 10.808 6.84L10.772 6.804L10.736 6.672C10.688 6.588 10.664 6.528 10.652 6.444C10.64 6.384 10.64 6.264 10.652 6.168C10.664 6.072 10.748 5.88 10.808 5.832C10.832 5.808 10.868 5.784 10.916 5.76C11.144 5.76 11.48 5.688 11.708 5.94C11.912 6.192 11.876 6.48 11.78 6.732C11.696 6.924 11.552 6.996 11.504 6.996H10.676ZM5.876 5.844V5.388L6.128 5.352L6.476 5.172L7.484 5.292V5.532L8.06 5.796L8.54 5.844L8.612 5.916C8.624 5.94 8.648 6.072 8.684 6.324C8.672 6.336 8.648 6.372 8.636 6.408C8.624 6.444 8.408 6.828 8.012 7.56L7.712 7.8C7.688 7.812 7.652 7.812 7.616 7.8L7.496 7.764L6.668 7.416C6.176 7.212 5.9 7.08 5.864 7.044C5.78 6.984 5.72 6.876 5.72 6.78L5.708 6L5.876 5.844ZM4.268 6.504C4.592 6.516 4.76 6.516 4.76 6.528V6.756H4.268V6.504ZM2.984 6.576L3.008 6.504H4.1V6.756C3.332 6.756 2.936 6.744 2.924 6.732L2.984 6.576Z" fill="white"/>
</svg>
