<svg width="20" height="11" viewBox="0 0 20 11" fill="none" xmlns="http://www.w3.org/2000/svg">
<path d="M8.83 5.24L9.62 1.99H5.91L4.63 3.33H1.3L0.28 7.85H3.71L4.87 9.28H6.81L6.01 5.83H5.48H2.73L5.75 5.42L7.16 3.33H7.84L7.28 5.24H8.83ZM14.31 8.25C14.35 8.14 14.4 8.05 14.44 7.94L14.53 7.66L15.98 7.76L14.65 7.3V7.29C14.72 7.08 14.77 6.86 14.82 6.63C14.85 6.54 14.86 6.44 14.89 6.33L19.51 5.85L15.05 5.25C15.07 4.97 15.08 4.7 15.08 4.43L16.56 4.08L15.07 4.05C15.07 3.78 15.05 3.52 15.02 3.25L14.99 3.05L17.73 2.03L14.83 2.11C14.8 2.04 14.81 1.99 14.78 1.92C14.73 1.69 14.67 1.5 14.6 1.27C14.53 1.06 14.46 0.849999 14.35 0.65C14.36 1.54 14.36 2.4 14.33 3.28C14.29 4.15 14.23 4.99 14.1 5.83C14.07 6.04 14.03 6.25 13.99 6.46C13.95 6.67 13.91 6.88 13.86 7.08C13.77 7.51 13.66 7.92 13.55 8.33C13.43 8.74 13.3 9.15 13.15 9.56C13.12 9.67 13.07 9.76 13.04 9.87L12.92 10.17C12.83 10.38 12.75 10.58 12.64 10.78C12.83 10.63 12.97 10.47 13.12 10.3C13.27 10.11 13.4 9.94 13.52 9.75L13.77 9.35L16.77 9.64L14.25 8.4L14.31 8.25ZM9.66 5.48H11.57L11.61 5.27L11.77 4.42L11.86 3.89H10.06L9.66 5.48ZM7.82 9.52H10.34C10.53 9.05 10.7 8.58 10.86 8.09H8.13L7.82 9.52ZM10.15 3.41H11.92C11.99 2.87 12.04 2.34 12.07 1.83H10.55L10.15 3.41ZM8.21 7.5H11.05L11.37 6.31L11.45 5.99H8.53L8.21 7.5Z" fill="white"/>
</svg>
