<svg width="13" height="13" viewBox="0 0 13 13" fill="none" xmlns="http://www.w3.org/2000/svg">
<path d="M12.884 5.68H10.94C10.748 3.808 9.236 2.26 7.328 2.068V0.124H6.404V2.068C4.484 2.26 3.008 3.808 2.78 5.68H0.848V6.604H2.78C3.008 8.524 4.484 10 6.404 10.228V12.172H7.328V10.228C9.236 10 10.748 8.524 10.94 6.604H12.884V5.68ZM7.328 8.212H6.404V9.304C5.024 9.112 3.896 7.996 3.704 6.604H4.808V5.68H3.704C3.896 4.3 5.012 3.184 6.404 2.992V4.096H7.328V2.992C8.72 3.184 9.836 4.3 10.028 5.68H8.924V6.604H10.028C9.836 7.996 8.708 9.112 7.328 9.304V8.212ZM6.86 5.392C6.44 5.392 6.104 5.728 6.104 6.148C6.104 6.568 6.44 6.916 6.86 6.916C7.28 6.916 7.628 6.568 7.628 6.148C7.628 5.728 7.28 5.392 6.86 5.392Z" fill="white"/>
</svg>
