<svg width="31" height="12" viewBox="0 0 31 12" fill="none" xmlns="http://www.w3.org/2000/svg">
<path d="M24.692 4.048L24.608 3.964L24.848 3.724V3.352L24.692 3.232L16.328 2.872L15.692 2.704H13.76V2.44H14.072L14.348 2.164V2.032L14.204 1.9V1.456L14.156 1.168L13.988 0.976L13.76 0.879999H11.084L10.904 0.999999L10.352 2.212L10.508 2.356H10.832L10.088 2.704H1.952L1.808 2.428H1.292L1.208 2.344H0.632L0.56 2.404L0.488 2.716L0.524 3.856L0.56 5.356L0.536 6.7L0.416 8.2L0.596 8.38L1.82 8.02V7.936H3.212L3.416 8.2H3.536L3.584 8.632L3.812 8.644L4.052 10.132L4.196 10.228L4.856 10.156L4.928 10.048L5.156 10.024L5.24 10.12L6.608 9.988L6.728 9.844L6.896 9.82L7.064 9.94L7.868 9.844L8 9.628L7.64 6.004L7.892 5.872V5.62L9.092 5.656L9.56 5.716L9.956 5.908L10.112 6.124L10.16 6.376L10.088 6.616L9.812 6.904L9.284 7.528L8.864 8.26L8.6 8.932L8.48 9.616L8.072 9.784L8.132 9.964L8.288 10.024L12.008 11.068L12.512 11.116L12.944 11.068L13.316 10.84L13.568 10.612L13.76 10.24L14.624 7.828L14.792 7.612L15.176 7.312L15.596 7.048L16.112 6.916H16.772H24.236H24.668L24.92 6.808L25.136 6.64L25.292 6.364L25.34 6.1V5.5H24.86L24.668 5.308H25.304H29.888L30.044 5.152V4.156L29.948 4.048H24.692ZM14.432 7.048L13.244 10.312L13.064 10.492L12.812 10.6H12.464L12.128 10.504L10.568 9.904L10.796 9.268L10.928 9.064L11.096 8.884L11.228 8.824L11.288 8.416L11.384 8.08L11.576 7.852L11.756 7.78L12.02 7.756L12.188 7.768L12.236 7.552L11.96 7.372L11.828 7.12L11.804 6.868L11.924 6.616L12.044 6.496L12.152 6.46L12.2 6.736L12.296 7.036L12.428 7.288L12.596 7.432L12.704 7.3L12.572 7.084L12.5 6.736L12.56 6.46H14.312L14.432 6.556L14.48 6.724V6.868L14.432 7.048ZM18.26 5.404V5.068H23.408V5.404H18.26Z" fill="white"/>
</svg>
