<svg width="32" height="13" viewBox="0 0 32 13" fill="none" xmlns="http://www.w3.org/2000/svg">
<path d="M29.396 2.92L29.156 3.196H26.372L26.204 3.004H25.556L25.232 3.376L25.076 3.184L25.748 2.416H27.164V1.732H25.808L25.532 0.711999L25.46 0.592H25.364H20.528L20.276 0.651999L20.072 0.808L19.424 1.48L19.304 1.348H17.192L16.772 1.828H16.484V1.996H16.64V2.224H16.484V2.44H17.156L17.288 2.596V3.064H16.688L16.544 3.196V3.532L16.436 3.484V3.172L13.112 2.344H11.876L9.812 2.38V2.524L10.076 2.632L11.516 2.872L11.792 3.088V3.532L9.62 3.76H9.044L4.544 3.784L4.376 3.664L3.44 3.652L2.888 3.148H0.776L0.548 3.412V6.448L0.74 6.688H1.16V7.588L1.304 7.756H2.516L3.308 6.364V5.98H9.68L9.956 6.352H10.292L11.636 6.856V7.144H12.176L12.368 6.916H13.064L13.244 7.132V8.428L17.204 10.984H19.304V10.384L20.204 8.908H20.78L20.9 9.388L21.5 9.34L21.896 9.136L22.184 8.8L22.34 8.368L22.424 8.056H22.628V8.584H23.78L24.152 7.972H25.124V8.08H24.968V8.2H24.68V8.74H24.98V8.884L25.292 9.016H25.7L26.048 9.424V9.556L27.884 11.68H28.04L28.4 12.088L28.892 11.512L28.616 11.2V10.996L26.792 8.884H26.588L26.228 8.476V8.032H27.704L28.004 7.696L28.1 7.804H28.496V7.564H28.94L30.128 6.736H30.992L31.436 6.232V3.448L30.98 2.92H29.396ZM2.336 7.456H1.508L1.448 7.384V6.688L2.72 6.664L3.032 6.184V6.34L2.336 7.456ZM18.536 9.412H17.804V8.368V8.116L17.876 7.936L17.972 7.792L18.116 7.708H19.016L19.088 7.744L19.16 7.804L19.244 7.936L19.268 8.092V8.56L18.536 9.412ZM20.324 1.252H20.456L20.816 1.684L19.952 1.672L20.324 1.252ZM21.704 8.416L21.596 8.512L21.44 8.56H20.984L20.924 8.5L20.876 8.308V8.092V7.9H21.74L21.764 8.116V8.284L21.704 8.416ZM21.224 1.672L20.732 1.096L20.828 0.976L24.848 0.987999L24.344 1.672H21.224Z" fill="white"/>
</svg>
