<svg width="13" height="13" viewBox="0 0 13 13" fill="none" xmlns="http://www.w3.org/2000/svg">
<rect width="13" height="13" fill="white" fill-opacity="0.01"/>
<path d="M6.50016 9.39792C7.15016 9.39792 7.69634 9.17674 8.1387 8.73438C8.58106 8.29201 8.80225 7.74132 8.80225 7.08229C8.80225 6.43229 8.58106 5.88837 8.1387 5.45052C7.69634 5.01267 7.15016 4.79375 6.50016 4.79375C5.84113 4.79375 5.2927 5.01267 4.85485 5.45052C4.417 5.88837 4.19808 6.43229 4.19808 7.08229C4.19808 7.74132 4.417 8.29201 4.85485 8.73438C5.2927 9.17674 5.84113 9.39792 6.50016 9.39792ZM6.50016 8.58542C6.06683 8.58542 5.71023 8.44323 5.43037 8.15885C5.15051 7.87448 5.01058 7.51563 5.01058 7.08229C5.01058 6.65799 5.15051 6.3059 5.43037 6.02604C5.71023 5.74618 6.06683 5.60625 6.50016 5.60625C6.92447 5.60625 7.27881 5.74618 7.56318 6.02604C7.84756 6.3059 7.98975 6.65799 7.98975 7.08229C7.98975 7.51563 7.84756 7.87448 7.56318 8.15885C7.27881 8.44323 6.92447 8.58542 6.50016 8.58542V8.58542ZM1.896 11.375C1.67933 11.375 1.48975 11.2937 1.32725 11.1312C1.16475 10.9687 1.0835 10.7792 1.0835 10.5625V3.61563C1.0835 3.40799 1.16475 3.22066 1.32725 3.05365C1.48975 2.88663 1.67933 2.80313 1.896 2.80313H3.88662L4.87516 1.625H8.12516L9.1137 2.80313H11.1043C11.312 2.80313 11.4993 2.88663 11.6663 3.05365C11.8333 3.22066 11.9168 3.40799 11.9168 3.61563V10.5625C11.9168 10.7792 11.8333 10.9687 11.6663 11.1312C11.4993 11.2937 11.312 11.375 11.1043 11.375H1.896ZM11.1043 10.5625V3.61563H8.73454L7.746 2.4375H5.25433L4.26579 3.61563H1.896V10.5625H11.1043Z" fill="white"/>
</svg>
