<svg width="35" height="10" viewBox="0 0 35 10" fill="none" xmlns="http://www.w3.org/2000/svg">
<path d="M32.444 3.036V3.24H32.096V3.036H31.652V3.168H25.508V2.856L25.628 2.736V2.424H25.94L26.12 2.232V2.112L25.928 1.908H25.472V1.512L25.124 1.38H19.808L19.616 1.176H17.036L16.892 1.32H16.22L15.908 1.008H15.824L15.752 1.092H14.672L14.348 0.624L14.312 0.42V0.24L14.216 0.155999H13.796L13.736 0.24V0.456L13.688 0.659999L13.568 0.875999H12.248L12.008 1.116H11.204V1.32H4.28L1.916 2.352L1.784 2.172H1.292L1.184 2.064H0.812L0.632 2.124L0.536 2.472L0.596 3.084L0.62 4.176L0.608 5.268L0.536 6.576V7.368V7.596L0.644 7.656L1.628 7.416L1.796 7.296L1.88 7.164V6.468H3.884C3.872 6.564 3.872 6.648 3.872 6.72C3.872 6.852 3.872 6.96 3.884 6.96C3.896 6.96 3.944 7.008 3.98 7.044L4.052 7.116L4.304 6.876V9.324H4.688L4.796 9.444H5.216L5.312 9.336H7.124L7.208 9.252L7.304 9.348H8.06L8.156 9.228V8.916H8.348V9.492H8.636V8.94L8.984 8.916L9.236 8.94L11.468 9.6L12.104 9.744L12.548 9.792L13.064 9.768L13.484 9.6L13.784 9.396L14.024 9.144L15.428 6.084L15.56 5.94L15.968 5.64L16.412 5.436L16.868 5.4H24.488L24.608 5.316L25.184 5.268L25.472 5.124H25.82L25.952 4.992V4.824L25.82 4.692H25.532V4.02H31.664V4.188H32.084V4.032H32.468V4.188H34.472V3.036H32.444ZM10.688 5.424L10.604 5.724L10.304 6.036L9.992 6.156H9.656L9.404 6L9.224 5.748L9.14 5.448L9.188 5.136L9.272 4.92L9.404 4.788L9.596 4.752H10.208L10.448 4.836L10.604 4.98L10.688 5.124V5.424ZM15.152 5.532L14.984 5.868L13.724 8.568L13.568 8.868L13.256 9.108L12.98 9.228H12.62L12.008 9.06L11.144 8.796L11.108 8.724L11.132 8.652L11.3 8.22L11.444 7.896L11.6 7.656L11.78 7.488L11.84 7.344L11.876 7.056L11.96 6.804L12.128 6.564L12.344 6.444L12.704 6.396L12.764 6.12L12.656 6.036L12.548 5.94L12.476 5.772V5.256L12.764 4.98H12.884L12.92 5.304L13.016 5.664L13.172 5.928L13.292 6.048L13.364 5.94L13.28 5.844L13.208 5.664L13.172 5.484L13.196 5.268L13.268 4.98H14.48H14.84L15.032 5.064L15.176 5.184L15.236 5.352L15.152 5.532Z" fill="white"/>
</svg>
