<svg width="29" height="9" viewBox="0 0 29 9" fill="none" xmlns="http://www.w3.org/2000/svg">
<path d="M28.29 1.19H28.09V0.869999H27.79V1.06H24.69L24.51 1.25H22.94L22.78 1.08H16.3L16.17 1.21H12.86L12.63 0.97L12.53 0.869999H9.91H9.05L8.88 1.05H8.66L8.37 1.13L7.68 1.72L7.6 1.77L7.54 1.8H6.7L6.63 1.88L6.53 1.77L6.36 1.68L6.13 1.53L5.81 1.4L5.52 1.31L5.26 1.28H1.5L1.38 1.41L1.26 1.28H1.01L0.58 1.3L0.46 1.35L0.38 1.46L0.35 1.65L0.37 2.17L0.41 3.16L0.38 4.09L0.29 5.02L0.32 5.38L0.36 5.5L0.48 5.53L1.07 5.39L1.18 5.31L6.34 4.16L6.53 4.08L6.63 4.03H6.71V4.14L7 4.41L7.1 4.46H8.55L8.83 4.51L9.03 4.59L9.23 4.74L9.35 4.95L9.37 5.11L9.3 5.32L9.17 5.47L8.96 5.68L8.63 6.17L8.35 6.76L8.13 7.45L8.05 8.06L8.12 8.33L8.08 8.42L8.09 8.65L8.35 8.72H9.85L10.03 8.53V8.39L9.88 8.23L10.34 7.09L10.47 6.92L10.55 6.78L10.61 6.62V6.44L10.64 6.29L10.74 6.1L10.83 6.01L10.94 5.95L11.17 5.91L11.32 5.86L11.39 5.75L11.4 5.64L11.35 5.56L11.19 5.48L11.05 5.36L11.04 5.2L11.07 4.99L11.13 4.78L11.19 4.6H11.48L11.49 4.79L11.56 5.04L11.68 5.28L11.84 5.43L11.92 5.35L11.85 5.22L11.83 5.09L11.81 4.94L11.83 4.78L11.89 4.63H18.73L18.6 4.83L18.51 4.96L18.55 5.08L18.78 5.12H25.15L25.35 5.16H25.55L25.66 5.11L25.72 4.98L25.77 4.72H26.99L27.09 4.61H28.23V4.25H28.36V3.14H28.49V2.25H28.65V1.37H28.46L28.29 1.19Z" fill="white"/>
</svg>
