<svg width="17" height="12" viewBox="0 0 17 12" fill="none" xmlns="http://www.w3.org/2000/svg">
<path d="M2.514 3.328L2.094 3.482L1.772 4.112L1.94 4.266H2.808L2.962 4.308L3.34 4.546L3.774 4.966L3.816 5.246L3.452 5.932L3.018 6.534L2.29 7.612L1.828 8.704L1.618 9.684L1.576 10.44L0.834 10.482L0.806 10.86L1.31 11.126L4.558 11.952H4.908L5.048 11.896L5.034 11.602L5.048 11.168L5.23 10.538L5.454 9.88L5.678 9.362L5.93 9.012L6.182 8.858L6.252 8.312L6.462 7.92L6.798 7.57L7.176 7.388L7.736 7.262L7.82 7.066L7.554 6.898L7.204 6.534L7.064 6.114L7.092 5.652L7.148 5.218L7.302 4.868L7.54 4.546L7.75 4.518L7.764 4.714L7.806 5.344L7.96 6.03L8.156 6.478L8.394 6.394L8.366 6.254L8.282 5.764L8.268 5.288L8.31 4.868L8.422 4.518H12.02L12.286 4.084H15.758V3.216L15.646 3.104L15.772 2.978V2.684H16.08V1.62H15.786V1.144L15.646 1.004H15.002L14.82 0.821999H14.372V0.976H6.7L6.56 1.116H6.098L5.972 1.004H4.712L4.432 0.724H3.76L3.48 1.004H2.388L2.178 1.214V2.964L2.402 3.188L2.514 3.328Z" fill="white"/>
</svg>
