<svg width="44" height="10" viewBox="0 0 44 10" fill="none" xmlns="http://www.w3.org/2000/svg">
<path d="M41.492 3.336H34.736V3.552H34.04V3.852H27.632V3.648H25.604V3.852H25.136V3.636H24.344V3.084H18.776L18.128 2.724H17.408L17.984 2.1H18.908V1.836L17.924 1.368V0.564L17.756 0.3H9.74L9.44 0.48H8.648L7.592 1.836L7.628 1.86H8.6V2.064H11.588V2.448H10.268L10.088 2.58H9.044L8.984 2.64H8.696L8.6 2.736V3.096H7.772L7.436 3.468H1.772V3.264L1.736 3.132L1.652 3.012H1.328L1.232 2.916H0.92L0.692 2.952L0.644 3.06L0.608 3.396L0.668 4.056L0.692 5.436L0.644 6.648L0.572 7.812L0.548 8.112L0.596 8.28L0.656 8.376L0.776 8.4L1.52 8.136L1.64 8.04L1.688 7.932L8.432 9.312L8.6 9.168L8.54 8.976L8.708 8.508L8.816 8.16L8.912 7.956L9.08 7.812L9.116 7.632V7.524L9.152 7.344L9.236 7.164L9.344 7.008L9.524 6.924L9.776 6.9L9.836 6.684L9.74 6.636L9.584 6.504L9.524 6.324V6.12L9.56 5.904L9.644 5.7L9.776 5.532H9.872L9.884 5.712L9.944 6.084L10.1 6.444L10.232 6.624L10.328 6.564L10.292 6.48L10.22 6.24L10.196 5.94L10.232 5.7L10.292 5.532H10.748V6.624L10.82 6.732L11.372 7.116V8.736L11.432 8.808H11.78L11.876 8.904H14.324L14.456 8.76V6.3H16.076L16.184 6.42H24.932L25.076 6.372L25.16 6.264L25.184 5.892H25.7V6.036H27.104V5.268H25.664V5.436H25.16V4.98L25.664 4.788V4.92H27.632V4.728H34.052V5.076H34.676V5.292H41.504V4.92H43.712V3.672H41.492V3.336ZM7.292 7.296V7.524L7.184 7.632L7.016 7.68H6.812L6.596 7.572L6.272 7.332L4.496 5.52H8.24V5.748L7.292 7.296ZM14.948 2.712L14.504 2.496H13.892L13.868 2.484V2.1H16.484V2.712H14.948Z" fill="white"/>
</svg>
