<svg width="24" height="12" viewBox="0 0 24 12" fill="none" xmlns="http://www.w3.org/2000/svg">
<path d="M19.22 2.704V2.548L19.064 2.416H18.464L18.308 2.272H16.04V2.128H15.032V2.068V1.924H15.176V1.84H15.368L15.44 1.768V0.796H15.284V0.651999L15.224 0.603999H15.116H12.932V0.483999H12.776L12.596 0.628H12.332L12.176 0.784V1.84H12.476L12.584 1.9H13.016V2.092H10.304L10.172 2.236V2.38H10.064V2.26L9.98 2.248L9.872 1.876L9.596 1.54H9.44V1.756H9.356L9.284 1.948V2.38H2.084L2.024 2.44H1.88L1.724 2.284H1.532L1.388 2.008H1.088H0.848L0.704 2.128L0.608 2.392V3.016L0.656 4.6L0.644 6.148L0.608 7.36V7.6L0.656 7.744L0.8 7.804L1.34 7.624L1.412 7.42H1.58L1.868 7.36L2.132 7.24L2.324 7.096L3.992 4.864L4.232 4.648L4.46 4.6L4.568 4.708H4.856L5.636 4.636L5.828 4.588H7.964L8.204 4.78L9.008 4.888L9.092 5.044L9.08 5.392L8.96 5.8L8.72 6.268L8.588 6.808L8.528 7.624L8.588 8.392L8.72 8.848L8.936 9.292L9.248 9.364V11.62L9.344 11.716H9.62L9.692 11.8H10.436L10.604 11.632V9.376H11.888H12.656L13.04 9.34L13.376 9.28L13.64 9.184L13.844 9.076L14 8.848L14.828 6.808L15.224 5.932L15.404 5.596L15.56 5.452H15.68L15.8 5.572H18.152L18.332 5.56L18.392 5.524L18.416 5.452L18.404 5.332L18.248 5.104H18.944L18.992 5.008V4.732L18.92 4.612H16.952V4.384H19.124L19.232 4.252V4.036H22.976L23.072 3.928V2.776L22.94 2.704H19.22ZM14.072 5.524L13.04 8.128L12.884 8.392L12.716 8.536L12.512 8.596H11L10.832 8.56L10.736 8.464L10.7 8.38V6.436L10.904 6.328L10.916 6.196L10.748 6.076L10.664 5.92V5.692L10.7 5.416L10.76 5.248L10.82 5.116L10.916 5.08H11.168V5.26L11.228 5.572L11.384 5.884L11.552 6.052L11.612 5.944L11.516 5.812L11.468 5.656L11.456 5.464L11.48 5.26L11.552 5.08H11.876H12.02H13.904L14.036 5.128L14.12 5.2V5.332L14.072 5.524Z" fill="white"/>
</svg>
