<svg width="13" height="15" viewBox="0 0 13 15" fill="none" xmlns="http://www.w3.org/2000/svg">
<path d="M10.724 9.408L10.88 9L10.94 8.82L10.808 8.7L10.628 8.532L10.604 8.508L10.592 8.496H10.58L10.568 8.484L10.556 8.46L10.472 8.364L10.316 8.184L10.172 7.98C9.968 7.728 9.8 7.44 9.62 7.164C9.284 6.588 8.996 5.988 8.756 5.364C8.504 4.752 8.3 4.116 8.144 3.456L8.024 2.964L7.928 2.472L7.832 1.968L7.76 1.464C7.796 2.148 7.844 2.82 7.952 3.492L8.036 3.996L8.144 4.5C8.228 4.836 8.324 5.16 8.42 5.484C8.636 6.144 8.9 6.78 9.212 7.392C9.392 7.692 9.56 7.992 9.752 8.28L9.908 8.496C9.956 8.58 10.004 8.628 10.064 8.712L10.148 8.808L10.172 8.832L10.196 8.868L10.22 8.892L10.232 8.904L10.244 8.916L10.292 8.964L10.196 9.18C10.148 9.312 10.088 9.432 10.028 9.564C9.908 9.804 9.776 10.044 9.632 10.284C9.356 10.752 9.032 11.208 8.684 11.64C8.336 12.06 7.952 12.468 7.556 12.84C7.352 13.02 7.148 13.188 6.92 13.344L6.848 13.404C7.136 13.128 7.508 12.744 7.832 12.276C8.132 11.832 8.372 11.34 8.528 10.956L8.768 10.308C8.66 10.5 8.54 10.692 8.408 10.884C8.18 11.208 7.916 11.616 7.628 11.94C7.328 12.264 7.028 12.528 6.788 12.72L6.392 13.02C6.26 12.936 6.128 12.828 5.996 12.72C5.756 12.528 5.456 12.264 5.168 11.94C4.88 11.616 4.604 11.208 4.376 10.884C4.244 10.692 4.124 10.5 4.016 10.308L4.256 10.956C4.412 11.34 4.628 11.832 4.952 12.276C5.276 12.744 5.648 13.116 5.936 13.392L5.876 13.344C5.648 13.188 5.444 13.02 5.24 12.84C4.82 12.468 4.448 12.06 4.112 11.64C3.764 11.196 3.44 10.752 3.152 10.284L2.768 9.552L2.588 9.18L2.492 8.964L2.54 8.928L2.564 8.904C2.564 8.892 2.576 8.88 2.588 8.868L2.624 8.832L2.636 8.808L2.72 8.712L2.888 8.496L3.032 8.28C3.236 7.992 3.392 7.692 3.572 7.392C3.896 6.78 4.136 6.156 4.364 5.484C4.568 4.824 4.736 4.164 4.844 3.492C4.952 2.82 5 2.148 5.036 1.464L4.952 1.968L4.856 2.472L4.76 2.964L4.64 3.456C4.484 4.116 4.28 4.752 4.028 5.364C3.788 5.988 3.5 6.588 3.164 7.164C2.984 7.44 2.816 7.728 2.612 7.98L2.468 8.184C2.42 8.244 2.372 8.304 2.312 8.364L2.24 8.46L2.216 8.472L2.204 8.484C2.204 8.484 2.192 8.496 2.18 8.508L2.168 8.532L1.976 8.7L1.844 8.82L1.904 9L2.06 9.408L2.24 9.804C2.372 10.08 2.504 10.344 2.636 10.584C2.924 11.1 3.224 11.568 3.596 12.036C3.968 12.504 4.352 12.912 4.796 13.332C5.024 13.524 5.24 13.704 5.48 13.884C5.612 13.992 5.732 14.076 5.852 14.136L6.224 14.364L6.392 14.46L6.56 14.364C6.68 14.304 6.812 14.22 6.944 14.136C7.064 14.064 7.184 13.98 7.304 13.884C7.544 13.704 7.772 13.524 8 13.332C8.42 12.936 8.816 12.504 9.188 12.036C9.56 11.568 9.872 11.1 10.148 10.584C10.292 10.332 10.424 10.08 10.556 9.804L10.724 9.408ZM11.768 7.704C11.708 7.524 11.624 7.32 11.54 7.104C11.384 6.732 11.132 6.228 10.784 5.688C11.156 6.564 11.336 7.368 11.468 7.956C11.54 8.304 11.588 8.616 11.612 8.916L11.828 8.124C11.888 8.46 11.876 8.772 11.864 9.012L11.816 9.408L11.72 9.792C11.636 10.02 11.516 10.332 11.336 10.632L11.432 9.828C11.3 10.104 11.132 10.392 10.928 10.704C10.592 11.232 10.088 11.94 9.416 12.696C9.956 12.264 10.388 11.856 10.676 11.532C10.844 11.352 10.988 11.172 11.12 11.016L11.036 11.676C11.216 11.496 11.372 11.28 11.516 11.052C11.768 10.656 12.056 10.116 12.188 9.456C12.32 8.82 12.248 8.208 12.152 7.764C12.092 7.5 12.02 7.26 11.936 7.044L11.768 7.704ZM1.448 10.632C1.256 10.332 1.148 10.02 1.064 9.792L0.968 9.408C0.944 9.288 0.932 9.156 0.92 9.012C0.884 8.772 0.896 8.46 0.956 8.124L1.184 8.916C1.208 8.616 1.256 8.304 1.316 7.956C1.424 7.368 1.628 6.564 2 5.688C1.628 6.228 1.4 6.732 1.244 7.104L1.028 7.704L0.848 7.044C0.764 7.26 0.692 7.5 0.632 7.764C0.536 8.208 0.464 8.82 0.596 9.456C0.728 10.116 0.992 10.656 1.268 11.052C1.424 11.28 1.58 11.496 1.76 11.676L1.676 11.016C1.808 11.172 1.952 11.352 2.12 11.532C2.408 11.856 2.816 12.264 3.38 12.696C2.696 11.94 2.192 11.232 1.856 10.704C1.652 10.392 1.484 10.104 1.352 9.828L1.448 10.632ZM5.684 9.252L5.504 11.112C5.588 11.244 5.684 11.364 5.768 11.472L6.008 10.152L5.984 11.724C6.08 11.832 6.176 11.928 6.26 12L6.392 10.728L6.524 12C6.608 11.916 6.704 11.844 6.8 11.736L6.776 10.152L7.016 11.484C7.1 11.352 7.196 11.256 7.28 11.124L7.1 9.252L7.46 10.836C7.58 10.62 8.036 9.828 8.228 8.724C8.12 8.4 8.012 8.052 7.916 7.692C7.736 7.08 7.556 6.312 7.424 5.556C7.28 4.692 7.208 4.044 7.172 3.576L7.124 2.892C7.112 3.096 7.1 3.348 7.112 3.648C7.124 4.164 7.184 4.932 7.364 6.024C7.496 6.78 7.64 7.44 7.772 7.932C7.844 8.22 7.916 8.484 7.988 8.724L7.904 9.06C7.796 8.736 7.688 8.376 7.58 7.98C7.4 7.308 7.184 6.372 7.04 5.268C6.908 4.416 6.86 3.216 6.824 2.268C6.8 1.704 6.788 1.14 6.788 0.576C6.764 0.924 6.752 1.332 6.74 1.788C6.728 2.568 6.74 3.708 6.872 5.16C6.968 6.36 7.208 7.392 7.412 8.16C7.532 8.604 7.664 9.012 7.796 9.384L7.664 9.708C7.484 9.132 7.256 8.448 7.028 7.584C6.848 6.816 6.68 5.772 6.596 4.752C6.512 3.684 6.464 2.52 6.428 1.608C6.404 1.08 6.392 0.563999 6.392 0.0719998L6.356 1.608C6.32 2.52 6.272 3.684 6.188 4.752C6.104 5.94 5.864 7.092 5.684 7.86C5.492 8.592 5.288 9.204 5.132 9.72L5 9.384C5.132 9.012 5.264 8.604 5.384 8.16C5.588 7.392 5.804 6.36 5.912 5.16C6.044 3.708 6.056 2.568 6.044 1.788C6.032 1.332 6.02 0.924 5.996 0.576C5.996 1.164 5.984 1.74 5.96 2.316C5.924 3.312 5.852 4.5 5.744 5.376C5.6 6.468 5.384 7.368 5.204 8.028C5.096 8.412 4.988 8.76 4.88 9.06L4.796 8.724C4.868 8.484 4.94 8.22 5.012 7.932C5.144 7.44 5.288 6.78 5.42 6.024C5.6 4.932 5.66 4.164 5.672 3.648C5.684 3.348 5.672 3.096 5.66 2.892L5.612 3.576C5.576 4.044 5.504 4.692 5.36 5.556C5.228 6.312 5.048 7.08 4.868 7.692C4.772 8.052 4.664 8.4 4.556 8.724C4.748 9.792 5.192 10.596 5.324 10.824L5.684 9.252Z" fill="white"/>
</svg>
