<svg width="43" height="7" viewBox="0 0 43 7" fill="none" xmlns="http://www.w3.org/2000/svg">
<path d="M28.688 0.72H17.6L17.012 0.0599996H15.26L15.092 0.312H9.56L8.24 0.972H2.3L1.928 0.492H1.016L0.476 0.768V2.7L0.752 3.024H1.832L1.94 2.868L2.12 2.712L2.3 2.592H8.312L9.032 3.06L10.16 6.468H10.46L10.676 3.12L11.084 3.036L11.636 3.324L12.512 3.156L12.74 3.024L13.1 3.072L13.64 3.168L14.228 3.432L14.696 3.828L15.308 4.668H36.956L42.56 0.288H29.312L28.688 0.72ZM18.68 3.6V3.132H22.16V3.6H18.68ZM23.396 3.132H35.528L35.912 3.6H23.396V3.132ZM36.164 2.592L36.428 2.352V1.584H37.94V1.836L36.44 2.952L36.164 2.592Z" fill="white"/>
</svg>
