<svg width="50" height="50" viewBox="0 0 50 50" fill="none" xmlns="http://www.w3.org/2000/svg">
<g clip-path="url(#clip0_503_3532)">
<path d="M25.2105 2.39551L6.91406 12.959L24.7206 23.9166L43.0171 13.3532L25.2105 2.39551Z" fill="white"/>
<path fill-rule="evenodd" clip-rule="evenodd" d="M6.42969 12.9512L25.2155 2.10516L43.5033 13.359L24.7175 24.205L6.42969 12.9512ZM7.40032 12.9648L24.7256 23.6263L42.5327 13.3453L25.2074 2.68386L7.40032 12.9648Z" fill="white"/>
<path d="M4.76263 14.2012L23.404 24.9639L4.76263 35.7265L4.76263 14.2012Z" fill="white"/>
<path d="M23.9555 47.6055L42.252 37.042L24.4454 26.0843L6.14895 36.6478L23.9555 47.6055Z" fill="white"/>
<path fill-rule="evenodd" clip-rule="evenodd" d="M42.7383 37.0488L23.9524 47.8948L5.66465 36.641L24.4505 25.795L42.7383 37.0488ZM41.7677 37.0352L24.4424 26.3737L6.63528 36.6547L23.9606 47.3161L41.7677 37.0352Z" fill="white"/>
<path d="M44.4053 35.7993L25.7639 25.0366L44.4053 14.274L44.4053 35.7993Z" fill="white"/>
</g>
<defs>
<clipPath id="clip0_503_3532">
<rect width="50" height="50" fill="white"/>
</clipPath>
</defs>
</svg>
