<svg width="32" height="13" viewBox="0 0 32 13" fill="none" xmlns="http://www.w3.org/2000/svg">
<path d="M0.792 5.848V7.038H25.152C25.474 7.038 25.74 6.772 25.74 6.45C25.74 6.114 25.474 5.848 25.152 5.848H0.792ZM28.638 6.464L31.368 4.518L28.022 4.546L29.072 1.354L26.384 3.356L25.376 0.149999L24.368 3.356L21.666 1.354L22.73 4.546L22.842 4.854H25.194C26.076 4.854 26.79 5.568 26.79 6.45C26.79 7.332 26.076 8.046 25.194 8.046H25.18H22.842L22.73 8.382L21.666 11.56L24.368 9.572L25.376 12.764L26.384 9.572L29.072 11.56L28.022 8.382L31.368 8.41L28.638 6.464ZM16.836 8.382H22.842V8.046H16.836V8.382ZM20.42 4.854H22.842V4.518H20.42V4.854ZM14.008 4.854H18.474V4.518H14.008V4.854ZM10.746 4.854H11.866V4.518H10.746V4.854ZM7.54 4.854H8.002V4.518H7.54V4.854ZM4.95 4.854H5.412V4.518H4.95V4.854ZM12.72 8.382H14.512V8.046H12.72V8.382ZM8.954 8.382H9.36V8.046H8.954V8.382Z" fill="white"/>
</svg>
